<?xml version="1.0" standalone="no"?>
<!DOCTYPE svg PUBLIC "-//W3C//DTD SVG 1.1//EN" "http://www.w3.org/Graphics/SVG/1.1/DTD/svg11.dtd" >
<svg xmlns="http://www.w3.org/2000/svg">
<metadata>
This is a custom SVG font generated by IcoMoon.
<iconset grid="14"></iconset>
</metadata>
<defs>
<font id="icomoon" horiz-adv-x="448" >
<font-face units-per-em="448" ascent="384" descent="-64" />
<missing-glyph horiz-adv-x="448" />
<glyph class="hidden" unicode="&#xf000;" d="M0,384L 448 -64L0 -64 z" horiz-adv-x="0" />
<glyph unicode="&#xe000;" d="M 224,342C 123.48,342, 42,260.52, 42,160s 81.48-182, 182-182s 182,81.48, 182,182S 324.52,342, 224,342z M 224,6C 138.95,6, 70,74.95, 70,160S 138.95,314, 224,314
			s 154-68.95, 154-154S 309.050,6, 224,6z M 207.592,206.074c-8.246-6.412-15.876-10.78-22.89-13.076l0-24.388 c 13.342,4.396, 24.934,11.186, 34.776,20.37
			l0-99.554 l 28.658,0 l0,140 l-23.604,0 C 221.48,220.858, 215.824,212.5, 207.592,206.074z"  />
<glyph unicode="&#xe001;" d="M 224,342C 123.48,342, 42,260.52, 42,160s 81.48-182, 182-182s 182,81.48, 182,182S 324.52,342, 224,342z M 224,6C 138.95,6, 70,74.95, 70,160S 138.95,314, 224,314
			s 154-68.95, 154-154S 309.050,6, 224,6z M 245.896,135.122c 8.498,7.784, 14.378,13.748, 17.64,17.892c 4.914,6.258, 8.498,12.25, 10.78,17.948
			c 2.254,5.712, 3.388,11.732, 3.388,18.046c0,11.102-3.962,20.398-11.872,27.86c-7.91,7.462-18.788,11.2-32.634,11.2
			c-12.628,0-23.156-3.22-31.584-9.66s-13.44-17.052-15.022-31.85l 26.796-2.674c 0.504,7.84, 2.422,13.44, 5.74,16.814
			c 3.304,3.374, 7.77,5.054, 13.384,5.054c 5.67,0, 10.122-1.61, 13.328-4.83c 3.22-3.22, 4.844-7.84, 4.844-13.832
			c0-5.418-1.862-10.906-5.544-16.464c-2.73-4.018-10.178-11.676-22.288-22.96c-15.064-13.972-25.144-25.186-30.24-33.642
			c-5.11-8.456-8.176-17.388-9.184-26.838l 94.276,0 l0,24.934 l-53.466,0 c 1.414,2.422, 3.234,4.914, 5.516,7.476
			C 231.994,122.158, 237.384,127.324, 245.896,135.122z"  />
<glyph unicode="&#xe002;" d="M 224,342C 123.48,342, 42,260.52, 42,160s 81.48-182, 182-182s 182,81.48, 182,182S 324.52,342, 224,342z M 224,6C 138.95,6, 70,74.95, 70,160S 138.95,314, 224,314
			s 154-68.95, 154-154S 309.050,6, 224,6z M 241.472,170.934c 13.482,7.35, 20.202,17.192, 20.202,29.512c0,8.694-3.276,16.478-9.87,23.38
			c-7.994,8.428-18.62,12.642-31.85,12.642c-7.742,0-14.728-1.456-20.958-4.354s-11.088-6.902-14.588-11.97
			c-3.472-5.068-6.090-11.858-7.826-20.356l 24.822-4.228c 0.714,6.146, 2.702,10.808, 5.964,14.014c 3.276,3.206, 7.224,4.802, 11.83,4.802
			c 4.676,0, 8.442-1.414, 11.256-4.214c 2.814-2.814, 4.228-6.594, 4.228-11.326c0-5.572-1.932-10.024-5.782-13.398
			c-3.822-3.36-9.422-4.942-16.73-4.746l-2.982-21.91c 4.816,1.344, 8.932,2.016, 12.39,2.016c 5.236,0, 9.674-1.974, 13.328-5.922
			c 3.654-3.948, 5.474-9.31, 5.474-16.058c0-7.126-1.904-12.796-5.698-16.996c-3.808-4.2-8.498-6.3-14.056-6.3
			c-5.18,0-9.604,1.75-13.23,5.25c-3.654,3.5-5.88,8.568-6.706,15.204l-26.026-3.164c 1.344-11.802, 6.188-21.35, 14.56-28.658
			c 8.372-7.308, 18.9-10.948, 31.612-10.948c 13.398,0, 24.612,4.326, 33.614,13.006c 9.016,8.666, 13.51,19.152, 13.51,31.458
			c0,8.47-2.408,15.708-7.21,21.7C 255.906,165.348, 249.494,169.212, 241.472,170.934z"  />
<glyph unicode="&#xe003;" d="M 224,342C 123.48,342, 42,260.52, 42,160s 81.48-182, 182-182s 182,81.48, 182,182S 324.52,342, 224,342z M 224,6C 138.95,6, 70,74.95, 70,160S 138.95,314, 224,314
			s 154-68.95, 154-154S 309.050,6, 224,6z M 254.464,225.282l-22.582,0 l-60.956-89.236l0-23.436 l 57.526,0 L 228.452,84.4 l 26.012,0 l0,28.224 l 17.402,0 l0,23.52 l-17.402,0 L 254.464,225.282 z
			 M 228.438,136.13l-32.326,0 l 32.326,48.076L 228.438,136.13 z"  />
<glyph unicode="&#xe004;" d="M 224,342C 123.48,342, 42,260.52, 42,160s 81.48-182, 182-182s 182,81.48, 182,182S 324.52,342, 224,342z M 224,6C 138.95,6, 70,74.95, 70,160S 138.95,314, 224,314
			s 154-68.95, 154-154S 309.050,6, 224,6z M 227.626,189.554c-6.258,0-12.404-1.498-18.382-4.494l 4.27,23.856l 50.708,0 l0,25.158 l-71.092,0 l-13.79-73.066
			l 21.798-3.178c 6.132,6.86, 13.048,10.276, 20.776,10.276c 6.188,0, 11.214-2.156, 15.078-6.468s 5.796-10.78, 5.796-19.404
			c0-9.198-1.96-16.072-5.838-20.65c-3.892-4.578-8.652-6.846-14.28-6.846c-4.914,0-9.254,1.764-13.020,5.306
			c-3.78,3.528-6.034,8.33-6.804,14.378l-26.782-2.772c 1.596-11.746, 6.468-21.084, 14.644-28.042c 8.176-6.944, 18.732-10.416, 31.696-10.416
			c 16.212,0, 28.868,6.174, 38.010,18.578c 6.706,9.058, 10.038,19.376, 10.038,30.94c0,13.846-4.144,25.116-12.446,33.81
			C 249.676,185.214, 239.554,189.554, 227.626,189.554z"  />
<glyph unicode="&#xe005;" d="M 224,342C 123.48,342, 42,260.52, 42,160s 81.48-182, 182-182s 182,81.48, 182,182S 324.52,342, 224,342z M 224,6C 138.95,6, 70,74.95, 70,160S 138.95,314, 224,314
			s 154-68.95, 154-154S 309.050,6, 224,6z M 231.28,178.41c-9.954,0-18.27-3.948-24.976-11.872c 1.022,16.114, 3.486,26.712, 7.406,31.794
			s 8.708,7.63, 14.392,7.63c 4.27,0, 7.742-1.274, 10.416-3.822s 4.34-6.482, 4.97-11.83l 26.026,2.87
			c-1.918,11.34-6.37,19.978-13.356,25.942c-6.986,5.95-15.806,8.932-26.46,8.932c-15.19,0-27.538-5.67-37.044-17.038
			c-9.506-11.354-14.252-29.89-14.252-55.608c0-25.074, 4.55-43.12, 13.692-54.124c 9.114-11.004, 20.762-16.52, 34.944-16.52
			c 13.216,0, 24.038,4.354, 32.452,13.034c 8.442,8.694, 12.642,20.23, 12.642,34.608c0,13.552-4.018,24.598-12.012,33.152
			C 252.126,174.14, 242.508,178.41, 231.28,178.41z M 240.814,112.96c-3.304-3.892-7.462-5.838-12.432-5.838c-5.152,0-9.744,2.38-13.762,7.14
			s-6.020,11.522-6.020,20.286c0,7.924, 1.778,13.93, 5.348,17.99s 7.938,6.104, 13.104,6.104c 5.348,0, 9.814-2.128, 13.384-6.384
			s 5.362-10.948, 5.362-20.104C 245.798,123.25, 244.132,116.852, 240.814,112.96z"  />
<glyph unicode="&#xe006;" d="M 224,342C 123.48,342, 42,260.52, 42,160s 81.48-182, 182-182s 182,81.48, 182,182S 324.52,342, 224,342z M 224,6C 138.95,6, 70,74.95, 70,160S 138.95,314, 224,314
			s 154-68.95, 154-154S 309.050,6, 224,6z M 178.416,197.926l 61.194,0 c-12.628-15.904-22.722-33.95-30.268-54.138
			c-7.56-20.174-11.564-39.984-11.998-59.402l 25.928,0 c-0.070,12.39, 1.96,26.446, 6.076,42.168c 4.102,15.736, 10.094,30.59, 17.92,44.576
			c 7.84,13.972, 15.54,24.696, 23.142,32.158l0,19.572 l-91.98,0 L 178.43,197.926 z"  />
<glyph unicode="&#xe007;" d="M 224,342C 123.48,342, 42,260.52, 42,160s 81.48-182, 182-182s 182,81.48, 182,182S 324.52,342, 224,342z M 224,6C 138.95,6, 70,74.95, 70,160S 138.95,314, 224,314
			s 154-68.95, 154-154S 309.050,6, 224,6z M 240.884,168.498c 6.118,2.674, 10.864,6.552, 14.252,11.634s 5.068,10.864, 5.068,17.374
			c0,10.472-3.696,19.11-11.046,25.942c-7.378,6.818-17.738,10.234-31.066,10.234c-13.468,0-23.842-3.416-31.15-10.234
			c-7.308-6.832-10.962-15.47-10.962-25.942c0-6.132, 1.582-11.76, 4.732-16.898c 3.178-5.138, 8.218-9.17, 15.176-12.11
			c-8.092-3.458-14.014-8.358-17.78-14.714c-3.752-6.356-5.628-13.342-5.628-20.944c0-13.804, 4.998-24.682, 15.008-32.592
			c 8.47-6.706, 19.096-10.066, 31.85-10.066c 13.706,0, 24.696,4.060, 32.956,12.18c 8.26,8.106, 12.39,18.648, 12.39,31.626
			c0,7.868-2.030,14.798-6.076,20.804S 248.668,165.362, 240.884,168.498z M 206.066,207.754c 3.066,3.066, 7.168,4.592, 12.334,4.592
			c 4.97,0, 8.974-1.512, 11.998-4.55c 3.024-3.024, 4.536-7.070, 4.536-12.11c0-5.362-1.526-9.562-4.592-12.586
			c-3.066-3.038-7.14-4.55-12.236-4.55c-5.040,0-9.058,1.498-12.096,4.494c-3.024,2.996-4.536,7.182-4.536,12.544
			C 201.474,200.628, 203,204.688, 206.066,207.754z M 232.652,117.818c-3.654-3.99-8.246-5.992-13.79-5.992
			c-5.67,0-10.416,2.058-14.224,6.216c-3.794,4.158-5.684,9.954-5.684,17.36c0,5.306, 1.61,10.234, 4.844,14.784
			c 3.22,4.536, 8.12,6.804, 14.686,6.804c 5.684,0, 10.374-2.002, 14.084-5.992c 3.696-4.004, 5.544-9.296, 5.544-15.862
			C 238.112,127.604, 236.292,121.822, 232.652,117.818z"  />
<glyph unicode="&#xe008;" d="M 224,342C 123.48,342, 42,260.52, 42,160s 81.48-182, 182-182s 182,81.48, 182,182S 324.52,342, 224,342z M 224,6C 138.95,6, 70,74.95, 70,160S 138.95,314, 224,314
			s 154-68.95, 154-154S 309.050,6, 224,6z M 218.526,225.282c-13.090,0-23.856-4.354-32.326-13.062c-8.456-8.708-12.67-20.188-12.67-34.412
			c0-13.664, 4.004-24.752, 11.998-33.264c 8.008-8.512, 17.542-12.782, 28.574-12.782c 10.15,0, 18.592,3.934, 25.368,11.788
			c-1.078-16.086-3.57-26.684-7.448-31.794c-3.892-5.096-8.596-7.658-14.154-7.658c-4.396,0-7.924,1.288-10.612,3.836
			s-4.34,6.496-4.97,11.802l-26.012-2.87c 1.918-11.662, 6.244-20.426, 13.006-26.278c 6.762-5.866, 15.638-8.806, 26.6-8.806
			c 15.26,0, 27.622,5.684, 37.128,17.066c 9.506,11.368, 14.266,29.89, 14.266,55.552c0,25.228-4.564,43.344-13.692,54.362
			C 244.454,219.766, 232.764,225.282, 218.526,225.282z M 231.77,157.578c-3.528-4.088-7.868-6.132-13.034-6.132
			c-5.348,0-9.814,2.114-13.384,6.37s-5.348,10.906-5.348,19.964c0,8.932, 1.638,15.372, 4.914,19.292c 3.29,3.92, 7.406,5.88, 12.39,5.88
			c 5.222,0, 9.814-2.394, 13.804-7.182c 3.976-4.788, 5.978-11.522, 5.978-20.202C 237.090,167.658, 235.326,161.666, 231.77,157.578z"  />
<glyph unicode="&#xe009;" d="M 224,342C 123.48,342, 42,260.52, 42,160s 81.48-182, 182-182s 182,81.48, 182,182S 324.52,342, 224,342z M 224,6C 138.95,6, 70,74.95, 70,160S 138.95,314, 224,314
			s 154-68.95, 154-154S 309.050,6, 224,6z M 223.916,233.682c-13.622,0-24.206-4.788-31.808-14.364c-9.198-11.62-13.79-30.632-13.79-57.036
			c0-26.922, 4.186-45.64, 12.544-56.14s 19.39-15.736, 33.054-15.736c 13.594,0, 24.206,4.788, 31.794,14.35c 9.198,11.606, 13.804,30.688, 13.804,57.232
			c0,26.6-4.564,45.654-13.706,57.148C 248.15,228.824, 237.51,233.682, 223.916,233.682z M 238.63,126.974c-1.428-5.362-3.402-9.072-5.964-11.158
			c-2.576-2.072-5.502-3.108-8.75-3.108c-3.276,0-6.174,1.022-8.708,3.066s-4.634,6.132-6.3,12.292s-2.492,17.472-2.492,33.922
			s 0.924,28.168, 2.786,35.112c 1.4,5.362, 3.388,9.072, 5.964,11.144c 2.562,2.072, 5.474,3.108, 8.75,3.108
			c 3.248,0, 6.146-1.036, 8.694-3.108c 2.534-2.072, 4.62-6.188, 6.286-12.348s 2.52-17.472, 2.52-33.922S 240.492,133.862, 238.63,126.974z"  />
<glyph unicode="&#xe00a;" d="M 224,342C 123.48,342, 42,260.52, 42,160s 81.48-182, 182-182s 182,81.48, 182,182S 324.52,342, 224,342z
			 M 248.598,68.496l-34.566,0 l0,130.27 c-12.614-11.774-27.496-20.482-44.632-26.138l0,31.276 c 9.016,2.954, 18.816,8.568, 29.386,16.828
			c 10.584,8.26, 17.822,17.892, 21.77,28.896l 28.042,0 L 248.598,68.496 z"  />
<glyph unicode="&#xe00b;" d="M 224,342C 123.48,342, 42,260.52, 42,160s 81.48-182, 182-182s 182,81.48, 182,182S 324.52,342, 224,342z
			 M 284.788,98.036l0-32.158 l-121.184,0 c 1.302,12.138, 5.236,23.632, 11.802,34.51c 6.552,10.864, 19.502,25.298, 38.836,43.26
			c 15.554,14.518, 25.102,24.36, 28.63,29.526c 4.76,7.14, 7.14,14.196, 7.14,21.168c0,7.714-2.058,13.65-6.174,17.794s-9.8,6.216-17.066,6.216
			c-7.168,0-12.88-2.184-17.122-6.538s-6.692-11.578-7.322-21.686l-34.566,3.458c 2.044,19.026, 8.47,32.69, 19.292,40.992
			c 10.808,8.288, 24.346,12.432, 40.572,12.432c 17.78,0, 31.752-4.802, 41.916-14.392c 10.164-9.604, 15.246-21.532, 15.246-35.798
			c0-8.12-1.456-15.848-4.368-23.184s-7.518-15.036-13.832-23.058c-4.186-5.32-11.746-13.006-22.694-23.016
			c-10.934-9.996-17.864-16.632-20.776-19.908c-2.912-3.29-5.264-6.482-7.070-9.604L 284.788,98.050 z"  />
<glyph unicode="&#xe00c;" d="M 224,342C 123.48,342, 42,260.52, 42,160s 81.48-182, 182-182s 182,81.48, 182,182S 324.52,342, 224,342z
			 M 265.93,85.002c-11.564-11.158-25.956-16.716-43.204-16.716c-16.324,0-29.862,4.69-40.6,14.070c-10.766,9.38-16.996,21.63-18.718,36.778
			l 33.474,4.046c 1.064-8.498, 3.934-14.994, 8.624-19.502c 4.662-4.494, 10.332-6.748, 16.982-6.748c 7.14,0, 13.146,2.716, 18.046,8.148
			c 4.872,5.418, 7.308,12.726, 7.308,21.924c0,8.694-2.338,15.61-7.014,20.706c-4.69,5.096-10.388,7.63-17.122,7.63
			c-4.438,0-9.73-0.868-15.904-2.576l 3.808,27.958c 9.352-0.252, 16.492,1.778, 21.406,6.076c 4.914,4.298, 7.364,10.010, 7.364,17.136
			c0,6.062-1.792,10.878-5.39,14.49c-3.612,3.598-8.386,5.404-14.35,5.404c-5.894,0-10.906-2.044-15.078-6.132
			c-4.172-4.102-6.706-10.080-7.616-17.934l-31.934,5.404c 2.212,10.948, 5.558,19.698, 10.038,26.25s 10.71,11.69, 18.704,15.442
			s 16.968,5.614, 26.894,5.614c 16.982,0, 30.604-5.418, 40.852-16.254c 8.456-8.862, 12.67-18.872, 12.67-30.030c0-15.834-8.666-28.476-26.012-37.912
			c 10.346-2.212, 18.62-7.182, 24.808-14.882c 6.202-7.714, 9.296-17.010, 9.296-27.916C 283.276,109.628, 277.494,96.146, 265.93,85.002z"  />
<glyph unicode="&#xe00d;" d="M 229.026,137.838l0,61.67 l-41.594-61.67L 229.026,137.838 z M 224,342C 123.48,342, 42,260.52, 42,160
			s 81.48-182, 182-182s 182,81.48, 182,182S 324.52,342, 224,342z M 284.816,107.654L 262.5,107.654 l0-36.33 l-33.474,0 l0,36.33 l-73.934,0 l0,30.058 l 78.372,114.744l 29.036,0 l0-114.618 
			l 22.316,0 L 284.816,107.654 z"  />
<glyph unicode="&#xe00e;" d="M 224,342C 123.48,342, 42,260.52, 42,160s 81.48-182, 182-182s 182,81.48, 182,182S 324.52,342, 224,342z
			 M 273.644,94.48c-11.746-15.918-28.042-23.87-48.888-23.87c-16.66,0-30.24,4.466-40.754,13.426c-10.5,8.974-16.786,21.028-18.844,36.148
			l 34.566,3.584c 0.98-7.826, 3.892-14, 8.722-18.536c 4.83-4.564, 10.388-6.832, 16.688-6.832c 7.21,0, 13.286,2.926, 18.298,8.778
			c 4.97,5.852, 7.476,14.686, 7.476,26.502c0,11.060-2.492,19.362-7.448,24.892c-4.97,5.53-11.452,8.302-19.432,8.302
			c-9.94,0-18.872-4.368-26.754-13.132l-27.958,4.046l 17.724,93.954l 91.434,0 l0-32.368 l-65.212,0 l-5.558-30.688c 7.742,3.822, 15.638,5.754, 23.702,5.754
			c 15.386,0, 28.42-5.586, 39.13-16.744c 10.696-11.158, 16.044-25.648, 16.044-43.442C 286.566,119.386, 282.254,106.128, 273.644,94.48z"  />
<glyph unicode="&#xe00f;" d="M 224.868,159.482c-6.664,0-12.278-2.604-16.87-7.812
			c-4.606-5.208-6.902-12.894-6.902-23.058c0-11.242, 2.59-19.908, 7.77-26.012c 5.166-6.118, 11.074-9.17, 17.738-9.17
			c 6.398,0, 11.746,2.52, 16.016,7.518s 6.398,13.188, 6.398,24.598c0,11.732-2.296,20.314-6.888,25.774S 231.77,159.482, 224.868,159.482z M 224,342
			C 123.48,342, 42,260.52, 42,160s 81.48-182, 182-182s 182,81.48, 182,182S 324.52,342, 224,342z M 266.658,81.502c-10.822-11.158-24.752-16.716-41.72-16.716
			c-18.228,0-33.208,7.070-44.94,21.224c-11.746,14.154-17.612,37.338-17.612,69.58c0,33.054, 6.132,56.882, 18.368,71.484
			c 12.222,14.602, 28.112,21.896, 47.656,21.896c 13.706,0, 25.060-3.85, 34.048-11.55c 9.002-7.714, 14.728-18.886, 17.192-33.544l-33.474-3.682
			c-0.826,6.86-2.968,11.942-6.412,15.204c-3.458,3.276-7.938,4.914-13.454,4.914c-7.322,0-13.524-3.262-18.578-9.814
			c-5.054-6.538-8.246-20.16-9.562-40.88c 8.61,10.164, 19.334,15.246, 32.158,15.246c 14.448,0, 26.824-5.488, 37.128-16.464
			s 15.456-25.158, 15.456-42.532C 282.912,107.416, 277.494,92.632, 266.658,81.502z"  />
<glyph unicode="&#xe010;" d="M 224,342C 123.48,342, 42,260.52, 42,160s 81.48-182, 182-182s 182,81.48, 182,182S 324.52,342, 224,342z
			 M 285.404,218.408c-9.758-9.618-19.67-23.394-29.75-41.37s-17.766-37.072-23.044-57.316c-5.278-20.23-7.868-38.304-7.798-54.222l-33.25,0 
			c 0.56,24.934, 5.698,50.4, 15.414,76.328c 9.688,25.942, 22.638,49.14, 38.85,69.58l-78.764,0 l0,32.158 l 118.342,0 L 285.404,218.408 z"  />
<glyph unicode="&#xe011;" d="M 226.996,150.732c-8.456,0-14.742-2.926-18.886-8.806
			c-4.144-5.866-6.202-12.222-6.202-19.082c0-9.604, 2.436-17.080, 7.308-22.456s 10.962-8.064, 18.27-8.064c 7.14,0, 13.048,2.604, 17.724,7.77
			s 7.014,12.614, 7.014,22.386c0,8.512-2.38,15.358-7.14,20.524C 240.324,148.156, 234.29,150.732, 226.996,150.732z M 226.506,178.088
			c 6.538,0, 11.76,1.96, 15.68,5.852c 3.906,3.906, 5.88,9.31, 5.88,16.212c0,6.496-1.946,11.69-5.824,15.596
			c-3.878,3.906-9.002,5.852-15.372,5.852c-6.622,0-11.886-1.974-15.806-5.908c-3.92-3.948-5.88-9.17-5.88-15.666
			c0-6.902, 1.946-12.292, 5.81-16.156C 214.886,180.020, 220.052,178.088, 226.506,178.088z M 224,342C 123.48,342, 42,260.52, 42,160s 81.48-182, 182-182
			s 182,81.48, 182,182S 324.52,342, 224,342z M 270.41,80.214c-10.626-10.444-24.752-15.666-42.364-15.666c-16.408,0-30.044,4.326-40.964,12.964
			c-12.866,10.206-19.306,24.178-19.306,41.944c0,9.772, 2.422,18.76, 7.28,26.936c 4.844,8.176, 12.488,14.49, 22.918,18.942
			c-8.946,3.766-15.456,8.946-19.502,15.54c-4.074,6.594-6.104,13.804-6.104,21.672c0,13.426, 4.69,24.514, 14.084,33.278
			c 9.394,8.75, 22.75,13.132, 40.054,13.132c 17.15,0, 30.464-4.382, 39.928-13.132c 9.492-8.764, 14.224-19.852, 14.224-33.278
			c0-8.358-2.17-15.778-6.524-22.288c-4.368-6.496-10.472-11.48-18.354-14.91c 9.982-4.032, 17.57-9.912, 22.764-17.64
			c 5.194-7.728, 7.798-16.646, 7.798-26.754C 286.342,104.224, 281.022,90.658, 270.41,80.214z"  />
<glyph unicode="&#xe012;" d="M 223.020,223.798c-6.426,0-11.76-2.52-16.002-7.546
			c-4.242-5.040-6.356-13.286-6.356-24.752c0-11.62, 2.31-20.146, 6.916-25.592c 4.606-5.46, 10.374-8.176, 17.276-8.176
			c 6.678,0, 12.292,2.632, 16.856,7.868s 6.846,12.936, 6.846,23.086c0,11.13-2.576,19.768-7.714,25.914S 229.754,223.798, 223.020,223.798z M 224,342
			C 123.48,342, 42,260.52, 42,160s 81.48-182, 182-182s 182,81.48, 182,182S 324.52,342, 224,342z M 268.982,89.958c-12.194-14.616-28.084-21.91-47.642-21.91
			c-14.098,0-25.466,3.78-34.146,11.298c-8.68,7.546-14.252,18.802-16.702,33.782l 33.474,3.71c 0.826-6.832, 2.954-11.9, 6.384-15.19
			c 3.416-3.29, 7.952-4.942, 13.608-4.942c 7.112,0, 13.16,3.276, 18.158,9.87c 4.97,6.594, 8.162,20.216, 9.562,40.922
			c-8.708-10.094-19.586-15.134-32.648-15.134c-14.21,0-26.474,5.474-36.778,16.408c-10.304,10.948-15.456,25.186-15.456,42.728
			c0,18.27, 5.446,32.998, 16.31,44.184c 10.878,11.186, 24.738,16.772, 41.566,16.772c 18.298,0, 33.32-7.084, 45.066-21.238
			c 11.732-14.154, 17.598-37.45, 17.598-69.86C 287.294,128.36, 281.19,104.574, 268.982,89.958z"  />
<glyph unicode="&#xe013;" d="M 234.332,223.308c-3.262,2.66-7,4.004-11.214,4.004s-7.966-1.344-11.27-4.004
			c-3.304-2.674-5.866-7.448-7.686-14.336c-2.394-8.946-3.584-23.996-3.584-45.164s 1.064-35.714, 3.206-43.624s 4.858-13.174, 8.106-15.82
			c 3.262-2.632, 7-3.92, 11.214-3.92s 7.952,1.33, 11.27,3.99s 5.852,7.448, 7.686,14.336c 2.38,8.862, 3.584,23.87, 3.584,45.038
			s-1.064,35.714-3.22,43.624C 240.282,215.342, 237.594,220.634, 234.332,223.308z M 224,342C 123.48,342, 42,260.52, 42,160s 81.48-182, 182-182s 182,81.48, 182,182
			S 324.52,342, 224,342z M 264.012,90.238c-9.772-12.306-23.408-18.452-40.894-18.452c-17.57,0-31.738,6.734-42.49,20.23s-16.128,37.548-16.128,72.156
			c0,33.964, 5.908,58.408, 17.738,73.332c 9.772,12.306, 23.408,18.452, 40.894,18.452s 31.164-6.23, 41.020-18.704
			c 11.732-14.77, 17.612-39.242, 17.612-73.458C 281.75,129.676, 275.828,105.148, 264.012,90.238z"  />
<glyph unicode="&#xe014;" d="M 224,342C 123.48,342, 42,260.52, 42,160s 81.48-182, 182-182s 182,81.48, 182,182S 324.52,342, 224,342z M 224,6C 138.95,6, 70,74.95, 70,160S 138.95,314, 224,314
			s 154-68.95, 154-154S 309.050,6, 224,6z M 205.128,219.206c-9.436,10.346-20.762,15.512-34.034,15.512c-13.58,0-24.78-4.704-33.558-14.126
			c-3.542-3.864-6.37-8.414-8.456-13.664c-2.072-5.25-3.122-10.584-3.122-15.974c0-11.116, 3.136-20.58, 9.38-28.378
			c 6.258-7.798, 14.406-12.46, 24.458-14l 3.486-0.224l 3.010-0.476c 4.634-0.616, 6.958-2.394, 6.958-5.32c0-3.094-3.094-7.952-9.282-14.588
			c-6.496-7.098-16.772-14.294-30.842-21.532c-5.88-3.094-8.806-6.944-8.806-11.578c0-2.94, 0.994-5.376, 3.010-7.294
			c 2.002-1.932, 4.55-2.884, 7.644-2.884c 7.714,0, 18.368,4.466, 31.948,13.426c 16.044,10.5, 28.868,23.268, 38.43,38.332
			c 9.576,15.036, 14.35,29.904, 14.35,44.576c0,6.944-1.316,13.846-3.934,20.72C 213.15,208.594, 209.594,214.418, 205.128,219.206z M 315.322,219.206
			c-9.38,10.346-20.622,15.512-33.712,15.512c-13.706,0-24.878-4.704-33.502-14.126c-3.556-3.864-6.356-8.456-8.442-13.776
			c-2.086-5.334-3.122-10.612-3.122-15.862c0-11.116, 3.080-20.622, 9.226-28.49s 14.252-12.502, 24.248-13.888l 3.696-0.224l 2.758-0.476
			c 4.62-0.616, 6.93-2.394, 6.93-5.32c0-3.094-3.010-7.952-9.016-14.588c-6.314-6.79-16.562-13.972-30.716-21.532
			c-5.866-3.094-8.792-6.944-8.792-11.578c0-2.94, 1.008-5.376, 3.010-7.294c 2.016-1.932, 4.55-2.884, 7.63-2.884
			c 7.7,0, 18.34,4.466, 31.878,13.426c 16.030,10.5, 28.784,23.268, 38.248,38.332c 9.464,15.036, 14.21,29.904, 14.21,44.576
			c0,6.944-1.302,13.846-3.92,20.72C 323.344,208.594, 319.802,214.418, 315.322,219.206z"  />
<glyph unicode="&#xe015;" d="M 224,342C 123.48,342, 42,260.52, 42,160s 81.48-182, 182-182s 182,81.48, 182,182S 324.52,342, 224,342z M 224,6C 138.95,6, 70,74.95, 70,160S 138.95,314, 224,314
			s 154-68.95, 154-154S 309.050,6, 224,6z M 204.288,213.564c 5.866,3.094, 8.792,6.958, 8.792,11.592c0,2.926-0.994,5.362-2.996,7.294
			c-2.016,1.932-4.55,2.898-7.63,2.898c-7.714,0-18.34-4.48-31.892-13.426c-16.030-10.5-28.77-23.268-38.234-38.318
			c-9.464-15.050-14.21-29.918-14.21-44.59c0-6.944, 1.316-13.846, 3.934-20.72c 2.618-6.86, 6.16-12.684, 10.626-17.486
			c 9.394-10.346, 20.636-15.512, 33.726-15.512c 13.706,0, 24.878,4.718, 33.502,14.14c 3.542,3.85, 6.342,8.456, 8.442,13.776
			c 2.072,5.334, 3.122,10.612, 3.122,15.862c0,11.116-3.080,20.608-9.226,28.49s-14.252,12.502-24.248,13.888l-3.696,0.224l-2.772,0.476
			c-4.606,0.616-6.93,2.394-6.93,5.32c0,3.094, 3.010,7.952, 9.030,14.588C 179.9,198.822, 190.12,206.004, 204.288,213.564z M 314.86,213.564
			c 5.88,3.094, 8.806,6.958, 8.806,11.592c0,2.926-0.994,5.362-3.010,7.294c-2.002,1.932-4.55,2.898-7.644,2.898
			c-7.714,0-18.368-4.48-31.948-13.426c-16.044-10.5-28.854-23.268-38.416-38.318s-14.35-29.918-14.35-44.59c0-6.944, 1.316-13.846, 3.934-20.72
			c 2.632-6.86, 6.16-12.684, 10.64-17.486c 9.422-10.346, 20.748-15.512, 34.020-15.512c 13.594,0, 24.78,4.718, 33.572,14.14
			c 3.542,3.85, 6.37,8.414, 8.456,13.664c 2.072,5.264, 3.122,10.584, 3.122,15.988c0,11.116-3.136,20.566-9.38,28.364
			c-6.258,7.798-14.406,12.46-24.458,14l-3.486,0.224l-3.010,0.476c-4.62,0.616-6.944,2.394-6.944,5.32c0,3.094, 3.094,7.952, 9.268,14.588
			C 290.514,199.144, 300.79,206.312, 314.86,213.564z"  />
<glyph unicode="&#xe016;" d="M 383.53,158.432L 212.38,328.406L 56.406,328.406 L 56.042,172.628l 169.092-172.606
			c 11.116-11.116, 28.994-11.27, 39.942-0.322l 118.776,118.79C 394.786,129.424, 394.646,147.316, 383.53,158.432z M 97.748,257.944c0,15.456, 12.544,28, 28,28
			s 28-12.544, 28-28c0-15.47-12.544-28-28-28S 97.748,242.474, 97.748,257.944z M 250.082,62.672l-108.892,108.892l 9.898,9.898l 108.892-108.892L 250.082,62.672z
			 M 279.776,92.366l-108.892,108.892l 9.912,9.898l 108.878-108.892L 279.776,92.366z M 309.47,122.074l-108.878,108.892l 9.898,9.898l 108.878-108.892
			L 309.47,122.074z"  />
<glyph unicode="&#xe017;" d="M 404.712,109.936l-130.354-130.354c-11.074-11.074-29.036-11.074-40.11,0L 74.452,139.392
	l-39.48,122.206l 28.84,28.84l 55.258-55.258c-1.484-10.64, 1.736-21.798, 9.912-29.974c 13.846-13.846, 36.288-13.846, 50.134,0
	c 13.832,13.846, 13.832,36.288,0,50.134c-8.176,8.176-19.334,11.382-29.974,9.912L 93.884,320.51L 122.080,348.72l 122.836-38.85L 404.712,150.060
	C 415.786,138.972, 415.786,121.024, 404.712,109.936z M 159.054,225.254c-2.772-2.772-7.252-2.772-10.024,0L 38.724,335.56
	c-2.772,2.772-2.772,7.266,0,10.024s 7.266,2.772, 10.024,0l 110.292-110.292C 161.826,232.52, 161.826,228.026, 159.054,225.254z"  />
<glyph unicode="&#xe018;" d="M 354.62,246.24l-49-84.868c-7.742-13.384-24.85-17.976-38.248-10.234l-12.11,7l 14,24.234
	l0,0c 6.692-3.85, 15.26-1.568, 19.11,5.124l 35,60.62c 3.864,6.706, 1.568,15.26-5.11,19.124l-48.51,28
	c-6.706,3.864-15.26,1.568-19.11-5.124l-35-60.62c-3.878-6.706-1.582-15.26, 5.11-19.124l-14-24.234l-12.11,7
	c-13.398,7.728-17.99,24.85-10.248,38.234l 49,84.868c 7.742,13.398, 24.85,17.976, 38.248,10.248l 72.73-42C 357.77,276.76, 362.362,259.638, 354.62,246.24
	z M 189,99.38c-6.706,3.864-9.002,12.432-5.124,19.124l 56,96.992c 3.864,6.706, 12.432,9.002, 19.124,5.124s 9.002-12.432, 5.11-19.124l-56-96.992
	C 204.26,97.812, 195.706,95.53, 189,99.38z M 178.752,137.614L 178.752,137.614c-6.706,3.864-15.26,1.568-19.124-5.11l-35-60.62
	c-3.864-6.706-1.568-15.26, 5.124-19.124l 48.51-28c 6.692-3.864, 15.26-1.568, 19.11,5.124l 35,60.62c 3.864,6.692, 1.568,15.26-5.11,19.124l0,0
	l 14,24.234l 12.11-7c 13.398-7.728, 17.99-24.836, 10.248-38.234l-49-84.868c-7.742-13.398-24.85-17.976-38.248-10.248l-72.744,42
	c-13.398,7.742-17.99,24.85-10.248,38.248l 49,84.868c 7.742,13.398, 24.864,17.99, 38.262,10.248l 12.11-7L 178.752,137.614z"  />
<glyph unicode="&#xe01c;" d="M 378-50L 70-50 c-15.456,0-28,12.544-28,28L 42,286 c0,15.47, 12.544,28, 28,28l 28,0 l0-14 c0-23.198, 18.802-42, 42-42
	c 23.184,0, 42,18.802, 42,42L 182,314 l 84,0 l0-14 c0-23.198, 18.816-42, 42-42s 42,18.802, 42,42L 350,314 l 28,0 c 15.456,0, 28-12.53, 28-28l0-308 C 406-37.456, 393.456-50, 378-50z M 378,216L 70,216 l0-238 l 308,0 
	L 378,216 z M 140,146L 98,146 l0,42 l 42,0 L 140,146 z M 140,76L 98,76 l0,42 l 42,0 L 140,76 z M 140,6L 98,6 l0,42 l 42,0 L 140,6 z M 210,146l-42,0 l0,42 l 42,0 L 210,146 z M 210,76l-42,0 l0,42 l 42,0 L 210,76 z M 210,6l-42,0 l0,42 l 42,0 L 210,6 z M 280,146l-42,0 
	l0,42 l 42,0 L 280,146 z M 280,76l-42,0 l0,42 l 42,0 L 280,76 z M 280,6l-42,0 l0,42 l 42,0 L 280,6 z M 350,146l-42,0 l0,42 l 42,0 L 350,146 z M 350,76l-42,0 l0,42 l 42,0 L 350,76 z M 350,6l-42,0 l0,42 l 42,0 L 350,6 z M 307.566,272
	C 292.334,272, 280,284.348, 280,299.566L 280,328.434 C 280,343.666, 292.334,356, 307.566,356s 27.566-12.334, 27.566-27.566l0-28.868 C 335.132,284.348, 322.798,272, 307.566,272z
	 M 139.566,272C 124.334,272, 112,284.348, 112,299.566L 112,328.434 C 112,343.666, 124.334,356, 139.566,356s 27.566-12.334, 27.566-27.566l0-28.868 C 167.132,284.348, 154.784,272, 139.566,272z"  />
<glyph unicode="&#xe01d;" d="M 392-36L 56-36 c-15.456,0-28,12.544-28,28L 28,286 c0,15.456, 12.544,28, 28,28l 28,0 l0-14 c0-23.198, 18.802-42, 42-42
	s 42,18.802, 42,42L 168,314 l 112,0 l0-14 c0-23.198, 18.816-42, 42-42s 42,18.802, 42,42L 364,314 l 28,0 c 15.456,0, 28-12.544, 28-28l0-294 C 420-23.456, 407.456-36, 392-36z M 392,216L 56,216 l0-224 l 336,0 L 392,216 z
	 M 182.966,106.394c 2.758,4.396, 4.144,9.044, 4.144,13.902c0,10.822-5.824,16.24-17.472,16.24c-10.122,0-19.796-4.018-29.036-12.054l0,22.806 
	c 10.22,6.622, 21.77,9.926, 34.622,9.926c 12.026,0, 21.42-3.024, 28.182-9.058s 10.136-14.21, 10.136-24.486c0-13.72-8.232-27.916-24.696-42.574
	l-24.206-21.49l0-0.49 l 47.74,0 l0-21.49 L 134.946,37.626 l0,20.174 l 33.712,32.242C 175.434,96.538, 180.208,101.984, 182.966,106.394z M 277.718,59.676
	c 3.696,2.842, 5.544,6.804, 5.544,11.9c0,5.25-2.282,9.296-6.846,12.138s-10.836,4.27-18.83,4.27l-10.584,0 l0,19.852 l 9.758,0 
	c 15.316,0, 22.974,5.082, 22.974,15.26c0,9.576-5.88,14.35-17.64,14.35c-7.868,0-15.526-2.548-22.974-7.63l0,21.168 
	c 8.26,4.158, 17.878,6.23, 28.868,6.23c 12.026,0, 21.392-2.702, 28.098-8.12s 10.052-12.446, 10.052-21.084c0-15.372-7.798-24.99-23.38-28.868l0-0.406 
	c 8.316-1.036, 14.868-4.060, 19.684-9.058s 7.224-11.144, 7.224-18.41c0-10.99-4.018-19.684-12.054-26.082s-19.138-9.604-33.306-9.604
	c-12.138,0-22.008,1.974-29.61,5.908l0,22.554 c 7.868-5.74, 17.066-8.61, 27.566-8.61C 268.87,55.406, 274.022,56.834, 277.718,59.676z
	 M 321.566,272C 306.334,272, 294,284.334, 294,299.566L 294,328.434 C 294,343.666, 306.334,356, 321.566,356s 27.566-12.334, 27.566-27.566l0-28.868 
	C 349.132,284.334, 336.798,272, 321.566,272z M 125.566,272C 110.334,272, 98,284.334, 98,299.566L 98,328.434 C 98,343.666, 110.334,356, 125.566,356s 27.566-12.334, 27.566-27.566l0-28.868 
	C 153.132,284.334, 140.784,272, 125.566,272z"  />
<glyph unicode="&#xe01e;" d="M 154,342L 126,342 l0-56 l 28,0 L 154,342 z M 308,272l-28,0 l0-28 l 28,0 L 308,272 z M 154,272L 126,272 l0-28 l 28,0 L 154,272 z M 321.132,300L 322,230l-56,0 L 266,300 l-98,0 l0-70 L 112,230 L 112,300 L 70,300 
			l0-336 l 294,0 L 364,300 L 321.132,300 z M 154,6.868L 112,6.868 l0,42 l 42,0 L 154,6.868 z M 154,62.868L 112,62.868 l0,42 l 42,0 L 154,62.868 z M 154,118.868L 112,118.868 l0,42 l 42,0 L 154,118.868 z M 210,6.868l-42,0 l0,42 l 42,0 L 210,6.868 z
			 M 210,62.868l-42,0 l0,42 l 42,0 L 210,62.868 z M 210,118.868l-42,0 l0,42 l 42,0 L 210,118.868 z M 266,6.868l-42,0 l0,42 l 42,0 L 266,6.868 z M 266,62.868l-42,0 l0,42 l 42,0 L 266,62.868 z M 266,118.868l-42,0 l0,42 
			l 42,0 L 266,118.868 z M 322,6.868l-42,0 l0,42 l 42,0 L 322,6.868 z M 322,62.868l-42,0 l0,42 l 42,0 L 322,62.868 z M 322,118.868l-42,0 l0,42 l 42,0 L 322,118.868 z M 308,342l-28,0 l0-56 l 28,0 L 308,342 z"  />
<glyph unicode="&#xe023;" d="M 307.986,328l-168,0 C 124.53,328, 112,315.456, 112,300l0-280 c0-15.456, 12.53-28, 27.986-28l 168,0 
			C 323.456-8, 336,4.544, 336,20L 336,300 C 336,315.456, 323.456,328, 307.986,328z M 182,314l 70,0 l 0.868-14L 182,300 L 182,314 z M 223.706,13c-7.728,0-14,6.258-14,14s 6.272,14, 14,14
			c 7.742,0, 14-6.258, 14-14S 231.434,13, 223.706,13z M 307.986,62l-168,0 l 0.294,224l 167.706,0 L 307.986,62 z"  />
<glyph unicode="&#xe024;" d="M 322.014,328l-210,0 C 96.544,328, 84,315.456, 84,300l0-280 c0-15.456, 12.544-28, 28.014-28l 210,0 
			C 337.47-8, 350,4.544, 350,20L 350,300 C 350,315.456, 337.47,328, 322.014,328z M 217,6c-7.728,0-13.986,6.258-13.986,14s 6.258,14, 13.986,14
			c 7.742,0, 14.014-6.258, 14.014-14S 224.742,6, 217,6z M 321.874,48.868L 111.51,48.868 L 111.51,299.636 l 210.364,0 L 321.874,48.868 z"  />
<glyph unicode="&#xe026;" d="M 238,34.868l-42,0 L 196,13 L 154,6l0-14 l 125.132,0 l0,13.132 L 238,13L 238,34.868 z M 378,328L 56,328 
			C 40.53,328, 28,315.47, 28,300l0-196 C 28,88.544, 40.53,76, 56,76l 322,0 c 15.47,0, 28,12.544, 28,28L 406,300 C 406,315.47, 393.47,328, 378,328z M 215.25,97
			c-7.728,0-14,6.272-14,14c0,7.742, 6.272,14, 14,14c 7.742,0, 14-6.258, 14-14C 229.25,103.272, 222.978,97, 215.25,97z M 378,146L 56,146 L 56,300 l 322,0 L 378,146 z"  />
<glyph unicode="&#xe027;" d="M 308,328L 140,328 C 124.53,328, 112,315.456, 112,300l0-280 c0-15.456, 12.53-28, 28-28l 168,0 c 15.456,0, 28,12.544, 28,28L 336,300 
			C 336,315.456, 323.456,328, 308,328z M 224,20c-27.076,0-49,21.938-49,49c0,27.076, 21.924,49, 49,49c 27.062,0, 49-21.924, 49-49
			C 273,41.938, 251.062,20, 224,20z M 308,146L 140,146 l 0.294,154L 308,300 L 308,146 z M 224,97c-15.456,0-28-12.544-28-28s 12.544-28, 28-28s 28,12.544, 28,28
			S 239.456,97, 224,97z"  />
<glyph unicode="&#xe029;" d="M 392,286L 181.944,285.762L 182,327.132L 70,328l0-42 L 42,286 C 26.544,286, 14,273.456, 14,258l0-238 
			c0-15.456, 12.544-28, 28-28l 350,0 c 15.456,0, 28,12.544, 28,28L 420,258 C 420,273.456, 407.456,286, 392,286z M 98,300l 56,0 l0-42 L 98,258 L 98,300 z M 168,34.588c-54.124,0-98,43.876-98,98
			c0,54.124, 43.876,98, 98,98c 54.11,0, 98-43.876, 98-98C 266,78.464, 222.11,34.588, 168,34.588z M 357,194.706c-15.47,0-28,12.53-28,28
			c0,15.456, 12.53,28, 28,28c 15.456,0, 28-12.544, 28-28C 385,207.25, 372.456,194.706, 357,194.706z M 168,193.25c-34.79,0-63-28.21-63-63
			s 28.21-63, 63-63s 63,28.21, 63,63S 202.79,193.25, 168,193.25z"  />
<glyph unicode="&#xe02a;" d="M 392,272l-83.132,0 C 308.868,272, 308,273.666, 308,293S 292.334,328, 273,328l-112,0 
			C 141.666,328, 126,312.334, 126,293S 126.868,272, 126.868,272L 42,272 c-15.456,0-28-12.544-28-28l0-224 c0-15.456, 12.544-28, 28-28l 350,0 c 15.456,0, 28,12.544, 28,28L 420,244 
			C 420,259.456, 407.456,272, 392,272z M 217.63,48.378c-46.396,0-84,37.604-84,84c0,46.382, 37.604,84, 84,84c 46.382,0, 84-37.604, 84-84
			C 301.63,85.982, 264.012,48.378, 217.63,48.378z"  />
<glyph unicode="&#xe02b;" d="M 378,145.342l-70,28.042l0,56.112 l 70,28.056c 7.742,0, 14-6.286, 14-14.028l0-84.168 
	C 392,151.614, 385.742,145.342, 378,145.342z M 245,243.538c-34.79,0-63,28.266-63,63.126c0,34.86, 28.21,63.126, 63,63.126S 308,341.524, 308,306.664
	C 308,271.79, 279.79,243.538, 245,243.538z M 119,243.538c-34.79,0-63,28.266-63,63.126c0,34.86, 28.21,63.126, 63,63.126S 182,341.524, 182,306.664
	C 182,271.79, 153.79,243.538, 119,243.538z M 294,243.538l0-126.252 l-78.148,0 c-0.728-11.648-5.824-21.686-13.398-27.37l 7.896,0 l 55.846-125.944L 252.28-36.028 
	l-18.62,42l-37.24,0 L 196.42-64 l-13.958,0 l0,69.972 l-37.828,0 l-18.914-42L 111.79-36.028 l 56.728,125.944l 5.278,0 c-7.574,5.684-12.67,15.722-13.398,27.37L 70,117.286 l0,126.252 l 49,0 l 126,0 L 294,243.538 z
	 M 182.448,85.576c-0.574,0.14-1.106,0.434-1.666,0.63l-29.848-66.248l 31.514,0 L 182.448,85.576 z M 196.406,86.584l0-66.64 l 31.038,0 l-29.764,67.13
	C 197.274,86.878, 196.854,86.752, 196.406,86.584z"  />
<glyph unicode="&#xe02c;" d="M 424.69,13.77c-1.792,3.094-7.532,4.046-17.234,2.828
			c-17.85-2.31-30.814,3.514-38.892,17.514c-6.118,10.584-7.7,21.224-4.746,31.92s 11.704,25.956, 26.236,45.808l 9.086,12.656
			c 26.992,37.282, 32.522,69.706, 16.604,97.3c-16.198,28.084-63,25.718-96.642,11.284C 291.886,289.206, 234.542,328, 168,328C 75.208,328,0,252.778,0,160
			c0-92.778, 75.208-168, 168-168c 92.778,0, 168,75.222, 168,168c0,20.566-3.878,40.194-10.64,58.394c 11.354,4.074, 24.934,7.028, 37.744,7.504
			c 16.828,0.616, 32.060-2.912, 38.108-13.384c 13.482-23.366, 6.972-50.974-19.53-82.782l-5.432-6.524c-30.996-37.198-38.402-69.776-22.274-97.748
			c 6.524-11.284, 16.898-19.334, 31.15-24.178c 14.252-4.83, 26.306-4.368, 36.19,1.344C 426.216,5.454, 427.35,9.178, 424.69,13.77z
			 M 91,124.132c-19.334,0-35,15.666-35,35c0,19.32, 15.666,35, 35,35s 35-15.666, 35-35C 126,139.798, 110.334,124.132, 91,124.132z
			 M 168,47.132c-19.334,0-35,15.666-35,35s 15.666,35, 35,35s 35-15.666, 35-35S 187.334,47.132, 168,47.132z M 154.28,159.132
			c0,7.728, 6.286,14, 14.014,14s 14-6.258, 14-14c0-7.742-6.272-14-14-14S 154.28,151.39, 154.28,159.132z M 168,201.132c-19.334,0-35,15.666-35,35
			c0,19.32, 15.666,35, 35,35s 35-15.666, 35-35C 203,216.798, 187.334,201.132, 168,201.132z M 245,124.132c-19.334,0-35,15.666-35,35
			c0,19.32, 15.666,35, 35,35s 35-15.666, 35-35C 280,139.798, 264.334,124.132, 245,124.132z"  />
<glyph unicode="&#xe03b;" d="M 302.4,272l-154,0 L 56,146l0-70 c0-15.456, 12.544-28, 28-28l 280,0 c 15.456,0, 28,12.544, 28,28l0,70 L 302.4,272z
			 M 314.51,145.678l-28.728-42.028l-120.232,0.28l-30.828,41.916l-57.204,0.336l 79.268,111.65L 294,257.832 l 78.4-111.65L 314.51,145.678z M 243.25,230
			c0,7.728-4.522,14-12.25,14c-7.742,0-13.132-6.272-13.132-14l0-55.132 L 183.75,174l 47.25-53.368L 277.368,174l-34.132,0.868L 243.236,230 z"  />
<glyph unicode="&#xe030;" d="M 229.614,21.246l0-41.93 c 41.93-2.268, 74.368-16.156, 74.368-29.092
	c0-0.322-171.948-0.322-171.948,0c0,12.474, 30.016,25.914, 69.706,28.896l0,42.294 C 151.074,28.68, 112,71.814, 112,124.496l0,20.902 l 13.944,0 l0-20.902 
	c0-50.036, 40.558-90.608, 90.594-90.622l 0.056,0 c 50.036,0.014, 91.462,40.572, 91.462,90.622l0,20.902 L 322,145.398 l0-20.902 
	C 322,71.212, 281.134,27.742, 229.614,21.246z M 216.552,48.686c-42.336,0-76.692,34.342-76.692,76.692l0,20.034 l 154.252,0 l0-20.034 
	C 294.112,83.028, 258.888,48.686, 216.552,48.686z M 139.86,279.35c0,42.35, 34.342,76.678, 76.692,76.678s 77.56-34.328, 77.56-76.678l0-120.008 L 139.86,159.342 L 139.86,279.35 z
	"  />
<glyph unicode="&#xe031;" d="M 229.6,20.896l0-41.902 c 41.888-2.254, 74.27-16.114, 74.27-29.050
	c0-0.322-171.752-0.322-171.752,0c0,12.446, 29.988,25.886, 69.622,28.868l0,42.252 c-50.596,7.252-89.628,50.358-89.628,102.956l0,21.77 l 13.93,0 l0-21.77 
	c0-49.98, 40.516-90.51, 90.496-90.524l 0.056,0 c 49.98,0.014, 90.496,40.544, 90.496,90.524l0,21.77 l 14.812,0 l0-21.77 
	C 321.888,70.806, 281.064,27.378, 229.6,20.896z M 217,48.63c-42.49,0-76.916,34.426-76.916,76.916l0,34.678 l 62.93,0 l0,13.986 l-62.93,0 l0,13.986 l 62.93,0 
	l0,13.972 l-62.93,0 l0,13.986 l 62.93,0 L 203.014,230.14 l-62.93,0 L 140.084,244.126 l 62.93,0 L 203.014,258.112 l-62.93,0 L 140.084,280.26 c0,42.476, 34.426,76.048, 76.916,76.048
	c 42.476,0, 76.916-33.558, 76.916-76.048l0-22.148 l-62.944,0 l0-13.986 l 62.944,0 l0-13.986 l-62.944,0 l0-13.986 l 62.944,0 l0-13.986 l-62.944,0 l0-13.972 l 62.944,0 l0-13.986 l-62.944,0 l0-13.986 
	l 62.944,0 l0-34.678 C 293.916,83.056, 259.476,48.63, 217,48.63z"  />
<glyph unicode="&#xe02f;" d="M 322,124.496l0,20.902 l-13.944,0 l0-20.902 c0-50.036-41.426-90.608-91.462-90.622l-0.056,0 
			c-50.036,0.014-90.594,40.572-90.594,90.622l0,20.902 L 112,145.398 l0-20.902 c0-52.682, 39.074-95.816, 89.74-103.068l0-42.294 
			c-39.704-2.996-69.706-16.436-69.706-28.896c0-0.322, 171.948-0.322, 171.948,0c0,12.936-32.424,26.824-74.354,29.092l0,41.93 
			C 281.134,27.742, 322,71.212, 322,124.496z M 216.552,48.686c 42.35,0, 77.56,34.342, 77.56,76.692l0,20.034 L 139.86,145.412 l0-20.034 
			C 139.86,83.028, 174.202,48.686, 216.552,48.686z M 294.112,279.35c0,42.35-35.21,76.678-77.56,76.678c-42.336,0-76.692-34.328-76.692-76.678l0-120.008 
			l 154.252,0 L 294.112,279.35 z M 245,327.832c 3.85,0, 7-3.136, 7-7s-3.15-7-7-7c-3.864,0-7,3.136-7,7S 241.136,327.832, 245,327.832z
			 M 217,327.832c 3.85,0, 7-3.136, 7-7s-3.15-7-7-7c-3.864,0-7,3.136-7,7S 213.136,327.832, 217,327.832z M 189,327.832
			c 3.85,0, 7-3.136, 7-7s-3.15-7-7-7c-3.864,0-7,3.136-7,7S 185.136,327.832, 189,327.832z M 161,173.832
			c-3.864,0-7,3.136-7,7s 3.136,7, 7,7c 3.85,0, 7-3.136, 7-7S 164.85,173.832, 161,173.832z M 161,201.832
			c-3.864,0-7,3.136-7,7s 3.136,7, 7,7c 3.85,0, 7-3.136, 7-7S 164.85,201.832, 161,201.832z M 161,229.832
			c-3.864,0-7,3.136-7,7c0,3.864, 3.136,7, 7,7c 3.85,0, 7-3.136, 7-7C 168,232.968, 164.85,229.832, 161,229.832z
			 M 161,257.832c-3.864,0-7,3.136-7,7s 3.136,7, 7,7c 3.85,0, 7-3.136, 7-7S 164.85,257.832, 161,257.832z M 175,285.832
			c-3.864,0-7,3.136-7,7s 3.136,7, 7,7c 3.85,0, 7-3.136, 7-7S 178.85,285.832, 175,285.832z M 189,173.832
			c-3.864,0-7,3.136-7,7s 3.136,7, 7,7c 3.85,0, 7-3.136, 7-7S 192.85,173.832, 189,173.832z M 189,201.832
			c-3.864,0-7,3.136-7,7s 3.136,7, 7,7c 3.85,0, 7-3.136, 7-7S 192.85,201.832, 189,201.832z M 189,229.832
			c-3.864,0-7,3.136-7,7c0,3.864, 3.136,7, 7,7c 3.85,0, 7-3.136, 7-7C 196,232.968, 192.85,229.832, 189,229.832z
			 M 189,257.832c-3.864,0-7,3.136-7,7s 3.136,7, 7,7c 3.85,0, 7-3.136, 7-7S 192.85,257.832, 189,257.832z M 203,285.832
			c-3.864,0-7,3.136-7,7s 3.136,7, 7,7c 3.85,0, 7-3.136, 7-7S 206.85,285.832, 203,285.832z M 217,173.832
			c-3.864,0-7,3.136-7,7s 3.136,7, 7,7c 3.85,0, 7-3.136, 7-7S 220.85,173.832, 217,173.832z M 217,201.832
			c-3.864,0-7,3.136-7,7s 3.136,7, 7,7c 3.85,0, 7-3.136, 7-7S 220.85,201.832, 217,201.832z M 217,229.832
			c-3.864,0-7,3.136-7,7c0,3.864, 3.136,7, 7,7c 3.85,0, 7-3.136, 7-7C 224,232.968, 220.85,229.832, 217,229.832z
			 M 217,257.832c-3.864,0-7,3.136-7,7s 3.136,7, 7,7c 3.85,0, 7-3.136, 7-7S 220.85,257.832, 217,257.832z M 231,285.832
			c-3.864,0-7,3.136-7,7s 3.136,7, 7,7c 3.85,0, 7-3.136, 7-7S 234.85,285.832, 231,285.832z M 245,173.832
			c-3.864,0-7,3.136-7,7s 3.136,7, 7,7c 3.85,0, 7-3.136, 7-7S 248.85,173.832, 245,173.832z M 245,201.832
			c-3.864,0-7,3.136-7,7s 3.136,7, 7,7c 3.85,0, 7-3.136, 7-7S 248.85,201.832, 245,201.832z M 245,229.832
			c-3.864,0-7,3.136-7,7c0,3.864, 3.136,7, 7,7c 3.85,0, 7-3.136, 7-7C 252,232.968, 248.85,229.832, 245,229.832z
			 M 245,257.832c-3.864,0-7,3.136-7,7s 3.136,7, 7,7c 3.85,0, 7-3.136, 7-7S 248.85,257.832, 245,257.832z M 259,285.832
			c-3.864,0-7,3.136-7,7s 3.136,7, 7,7c 3.85,0, 7-3.136, 7-7S 262.85,285.832, 259,285.832z M 273,173.832
			c-3.864,0-7,3.136-7,7s 3.136,7, 7,7c 3.85,0, 7-3.136, 7-7S 276.85,173.832, 273,173.832z M 273,201.832
			c-3.864,0-7,3.136-7,7s 3.136,7, 7,7c 3.85,0, 7-3.136, 7-7S 276.85,201.832, 273,201.832z M 273,229.832
			c-3.864,0-7,3.136-7,7c0,3.864, 3.136,7, 7,7c 3.85,0, 7-3.136, 7-7C 280,232.968, 276.85,229.832, 273,229.832z
			 M 273,257.832c-3.864,0-7,3.136-7,7s 3.136,7, 7,7c 3.85,0, 7-3.136, 7-7S 276.85,257.832, 273,257.832z"  />
<glyph unicode="&#xe02e;" d="M 336,146c-15.47,0-28-12.53-28-28l0-56 l-70,0 L 238,258 l 154,0 l0-112 L 336,146 z M 266,244l-14,0 l0-28 l 14,0 L 266,244 z M 266,104l-14,0 l0-28 l 14,0 L 266,104 z
	 M 294,244l-14,0 l0-28 l 14,0 L 294,244 z M 294,104l-14,0 l0-28 l 14,0 L 294,104 z M 322,244l-14,0 l0-28 l 14,0 L 322,244 z M 350,244l-14,0 l0-28 l 14,0 L 350,244 z M 378,244l-14,0 l0-28 l 14,0 L 378,244 z M 56,300l 182,0 l0-28 L 56,272 L 56,300 z M 224,258l0-196 L 70,62 L 70,258 L 224,258 z
	 M 238,20L 56,20 l0,28 l 182,0 L 238,20 z"  />
<glyph unicode="&#xe02d;" d="M 56,300l0-308 l 308,0 L 364,300 L 56,300 z M 112,20L 84,20 l0,28 l 28,0 L 112,20 z M 112,62L 84,62 l0,28 l 28,0 L 112,62 z M 112,104L 84,104 l0,28 l 28,0 L 112,104 z M 112,160L 84,160 l0,28 
			l 28,0 L 112,160 z M 112,202L 84,202 l0,28 l 28,0 L 112,202 z M 112,244L 84,244 L 84,272 l 28,0 L 112,244 z M 280,20L 140,20 l0,112 l 140,0 L 280,20 z M 280,160L 140,160 L 140,272 l 140,0 L 280,160 z M 336,20l-28,0 l0,28 l 28,0 L 336,20 z M 336,62l-28,0 l0,28 l 28,0 L 336,62 z M 336,104l-28,0 
			l0,28 l 28,0 L 336,104 z M 336,160l-28,0 l0,28 l 28,0 L 336,160 z M 336,202l-28,0 l0,28 l 28,0 L 336,202 z M 336,244l-28,0 L 308,272 l 28,0 L 336,244 z"  />
<glyph unicode="&#xe03c;" d="M 302.4,272l-154,0 L 56,146l0-70 c0-15.456, 12.544-28, 28-28l 280,0 c 15.456,0, 28,12.544, 28,28l0,70 L 302.4,272z
			 M 314.51,145.692l-28.728-42.042l-120.246,0.28l-30.814,41.93l-57.204,0.322l 79.268,111.65L 294,257.832 l 78.4-111.65L 314.51,145.692z M 183.75,188
			l 34.132-0.868L 217.882,132 c0-7.742, 5.39-14, 13.132-14c 7.728,0, 12.25,6.258, 12.25,14l0,55.132 L 277.368,188L 231,241.368L 183.75,188z"  />
<glyph unicode="&#xe03d;" d="M 302.4,272l-154,0 L 56,132l0-70 c0-15.456, 12.544-28, 28-28l 280,0 c 15.456,0, 28,12.544, 28,28l0,70 L 302.4,272z
			 M 314.51,131.678l-28.728-56.028l-120.246,0.28l-30.814,55.93l-57.204,0.322l 79.268,125.65L 294,257.832 l 78.4-125.65L 314.51,131.678z M 168,90l 112,0 l0,14 l-112,0 L 168,90 z
			 M 165.662,244.042L 103.838,146l 243.824,0 l-63,98.042L 165.662,244.042 z M 154,118l 140,0 l0,14 L 154,132 L 154,118 z"  />
<glyph unicode="&#xe03e;" d="M 224,342C 123.48,342, 42,260.52, 42,160s 81.48-182, 182-182s 182,81.48, 182,182S 324.52,342, 224,342z
	 M 325.612,211.702l-132.804-132.79c-3.332-3.318-8.722-3.318-12.054,0l-2.674,2.674l-0.014-0.014L 105,155.156
	c-3.332,3.332-3.332,8.736,0,12.068l 18.116,18.102c 3.332,3.332, 8.736,3.332, 12.068,0l 51.646-52.024l 108.584,108.584
	c 3.332,3.332, 8.736,3.332, 12.068,0l 18.116-18.116C 328.944,220.452, 328.944,215.048, 325.612,211.702z"  />
<glyph unicode="&#xe03f;" d="M 305.48,201.58l-14.028,14.028c-2.59,2.59-6.776,2.59-9.352,0l-84.196-84.182l-40.026,40.348c-2.604,2.59-6.776,2.59-9.38,0
		l-14.028-14.042c-2.59-2.59-2.59-6.776,0-9.352l 58.702-59.122c 2.59-2.576, 6.776-2.576, 9.352,0l 102.956,102.956
		C 308.084,194.804, 308.084,198.99, 305.48,201.58zM 224,342C 123.48,342, 42,260.52, 42,160s 81.48-182, 182-182s 182,81.48, 182,182S 324.52,342, 224,342z M 224,20c-77.308,0-140,62.692-140,140
		c0,77.322, 62.692,140, 140,140c 77.322,0, 140-62.678, 140-140C 364,82.692, 301.322,20, 224,20z"  />
<glyph unicode="&#xe040;" d="M 224-22C 123.48-22, 42,59.48, 42,160S 123.48,342, 224,342s 182-81.48, 182-182S 324.52-22, 224-22z
	 M 307.454,213.074c 3.416,3.416, 3.416,8.974,0,12.39l-18.592,18.578c-3.416,3.416-8.974,3.416-12.39,0l-52.654-52.654l-52.654,52.654
	c-3.416,3.416-8.974,3.416-12.39,0l-18.592-18.578c-3.416-3.416-3.416-8.974,0-12.39l 52.668-52.668l-52.668-52.64
	c-3.416-3.416-3.416-8.974,0-12.39l 18.592-18.592c 3.416-3.416, 8.974-3.416, 12.39,0l 52.654,52.668l 52.654-52.668
	c 3.416-3.416, 8.974-3.416, 12.39,0l 18.592,18.592c 3.416,3.416, 3.416,8.974,0,12.39l-52.668,52.64L 307.454,213.074z"  />
<glyph unicode="&#xe041;" d="M 224-22C 123.48-22, 42,59.48, 42,160S 123.48,342, 224,342s 182-81.48, 182-182S 324.52-22, 224-22z M 224,300
	C 146.692,300, 84,237.308, 84,160s 62.692-140, 140-140c 77.322,0, 140,62.692, 140,140S 301.322,300, 224,300z M 287.518,110.51l-14.196-14.196
	c-2.604-2.604-6.832-2.604-9.45,0l-40.18,40.18l-40.18-40.18c-2.618-2.604-6.832-2.604-9.45,0l-14.196,14.196
	c-2.604,2.604-2.604,6.832,0,9.45l 40.194,40.166l-40.194,40.18c-2.604,2.618-2.604,6.846,0,9.464l 14.196,14.182
	c 2.618,2.618, 6.832,2.618, 9.45,0l 40.18-40.18l 40.18,40.18c 2.618,2.618, 6.846,2.618, 9.45,0l 14.196-14.182
	c 2.604-2.618, 2.604-6.846,0-9.464l-40.194-40.18l 40.194-40.166C 290.122,117.342, 290.122,113.1, 287.518,110.51z"  />
<glyph unicode="&#xe042;" d="M 217-29c-100.52,0-182,81.48-182,182s 81.48,182, 182,182s 182-81.48, 182-182
	S 317.52-29, 217-29z M 307.132,160.868c0,7.728-6.272,14-14,14l-56,0 l0,56 c0,7.728-6.258,14-14,14l-14,0 c-7.742,0-14-6.272-14-14l0-56 l-56,0 
	c-7.742,0-14-6.272-14-14l0-14 c0-7.742, 6.258-14, 14-14l 56,0 l0-56 c0-7.742, 6.258-14, 14-14l 14,0 c 7.742,0, 14,6.258, 14,14l0,56 l 56,0 c 7.728,0, 14,6.258, 14,14L 307.132,160.868 z"  />
<glyph unicode="&#xe043;" d="M 224-22C 123.48-22, 42,59.48, 42,160S 123.48,342, 224,342s 182-81.48, 182-182S 324.52-22, 224-22z M 224,300
	C 146.692,300, 84,237.322, 84,160c0-77.308, 62.692-140, 140-140c 77.322,0, 140,62.692, 140,140C 364,237.322, 301.322,300, 224,300z M 279.832,146l-42,0 l0-42 
	c0-7.742-6.272-14-14-14c-7.742,0-14,6.258-14,14l0,42 l-42,0 c-7.742,0-14,6.272-14,14c0,7.728, 6.258,14, 14,14l 42,0 l0,42 c0,7.742, 6.258,14, 14,14
	c 7.728,0, 14-6.258, 14-14l0-42 l 42,0 c 7.728,0, 14-6.272, 14-14C 293.832,152.272, 287.56,146, 279.832,146z"  />
<glyph unicode="&#xe044;" d="M 217,335c-100.52,0-182-81.48-182-182s 81.48-182, 182-182c 100.52,0, 182,81.48, 182,182
			S 317.52,335, 217,335z M 308,147.75c0-7.742-6.272-14-14-14L 140,133.75 c-7.742,0-14,6.258-14,14l0,14 c0,7.728, 6.258,14, 14,14l 154,0 c 7.728,0, 14-6.272, 14-14
			L 308,147.75 z"  />
<glyph unicode="&#xe045;" d="M 224,342C 123.48,342, 42,260.52, 42,160s 81.48-182, 182-182s 182,81.48, 182,182S 324.52,342, 224,342z M 224,20
			c-77.308,0-140,62.692-140,140c0,77.322, 62.692,140, 140,140c 77.322,0, 140-62.678, 140-140C 364,82.692, 301.322,20, 224,20z M 276.332,174l-112,0 
			c-7.742,0-14-6.272-14-14c0-7.742, 6.258-14, 14-14l 112,0 c 7.742,0, 14,6.258, 14,14C 290.332,167.728, 284.074,174, 276.332,174z"  />
<glyph unicode="&#xe046;" d="M 217,335c-100.52,0-182-81.48-182-182s 81.48-182, 182-182s 182,81.48, 182,182
			S 317.52,335, 217,335z M 217,49.75c-11.606,0-21,9.408-21,21s 9.394,21, 21,21c 11.592,0, 21-9.408, 21-21
			S 228.592,49.75, 217,49.75z M 238,140.75c0-11.592-9.408-21-21-21c-11.606,0-21,9.408-21,21l0,98 c0,11.606, 9.394,21, 21,21
			c 11.592,0, 21-9.394, 21-21L 238,140.75 z"  />
<glyph unicode="&#xe047;" d="M 217,342C 112.616,342, 28,257.384, 28,153S 112.616-36, 217-36S 406,48.616, 406,153
			S 321.384,342, 217,342z M 217,6C 135.814,6, 70,71.814, 70,153S 135.814,300, 217,300S 364,234.186, 364,153S 298.186,6, 217,6z M 217,244
			c-11.592,0-21-9.394-21-21l0-70.868 c0-11.592, 9.408-21, 21-21s 21,9.408, 21,21L 238,223 C 238,234.606, 228.592,244, 217,244z M 217,104
			c-11.592,0-21-9.408-21-21s 9.408-21, 21-21s 21,9.408, 21,21S 228.592,104, 217,104z"  />
<glyph unicode="&#xe048;" d="M 363.93,117.048l-18.536,0 c-3.010-10.906-7.322-21.252-12.852-30.842l 17.136-17.122
	c 10.962-10.962, 10.962-28.742,0-39.704l-9.926-9.926c-10.962-10.962-28.742-10.962-39.704,0L 282.8,36.688c-9.562-5.446-19.866-9.688-30.716-12.642
	l0-17.976 c0-15.498-12.558-28.070-28.070-28.070l-14.028,0 c-15.498,0-28.084,12.558-28.084,28.070l0,17.976 c-10.836,2.954-21.154,7.21-30.716,12.642
	l-17.234-17.234c-10.948-10.962-28.728-10.962-39.69,0L 84.322,29.38c-10.962,10.962-10.962,28.742,0,39.704l 17.136,17.122
	c-5.53,9.604-9.842,19.936-12.866,30.842L 70.070,117.048 C 54.558,117.048, 42,129.606, 42,145.104l0,14.042 c0,15.498, 12.558,28.070, 28.070,28.070l 18.312,0 
	C 91.28,198.010, 95.424,208.286, 100.8,217.82l-16.478,16.464c-10.962,10.962-10.962,28.742,0,39.704l 9.926,9.912c 10.962,10.962, 28.742,10.962, 39.69,0
	l 16.142-16.142c 9.884,5.754, 20.552,10.234, 31.808,13.3L 181.888,299.93 C 181.902,315.442, 194.488,328, 209.986,328l 14.028,0 c 15.498,0, 28.070-12.558, 28.070-28.070
	l0-18.858 c 11.284-3.080, 21.938-7.56, 31.808-13.314l 16.142,16.142c 10.962,10.962, 28.742,10.962, 39.704,0l 9.926-9.912
	c 10.962-10.962, 10.962-28.742,0-39.704L 333.2,217.82c 5.376-9.534, 9.52-19.81, 12.432-30.618l 18.312,0 c 15.498,0, 28.070-12.572, 28.070-28.070l0-14.042 
	C 392,129.606, 379.442,117.048, 363.93,117.048z M 217,228.88c-42.63,0-77.196-34.566-77.196-77.196s 34.566-77.196, 77.196-77.196
	s 77.196,34.566, 77.196,77.196S 259.63,228.88, 217,228.88z M 217,117.482c-19.376,0-35.098,15.694-35.098,35.084c0,19.376, 15.722,35.084, 35.098,35.084
	s 35.084-15.708, 35.084-35.084C 252.084,133.176, 236.376,117.482, 217,117.482z"  />
<glyph unicode="&#xe049;" d="M 297.752,75.454l 9.926,9.926c 10.962,10.962, 10.962,28.742,0,39.704l-17.136,17.122
			c 5.516,9.604, 9.842,19.936, 12.852,30.842l 18.536,0 c 15.498,0, 28.070,12.572, 28.070,28.070l0,14.028 c0,15.498-12.558,28.070-28.070,28.070l-18.312,0 
			C 300.706,254.010, 296.576,264.286, 291.2,273.82l 16.478,16.464c 10.962,10.962, 10.962,28.742,0,39.704l-9.926,9.912
			c-10.962,10.962-28.742,10.962-39.704,0l-16.142-16.142c-9.87,5.754-20.538,10.234-31.808,13.314L 210.098,355.93 C 210.084,371.442, 197.512,384, 182.014,384
			l-14.028,0 c-15.498,0-28.084-12.558-28.084-28.070l0-18.858 c-11.27-3.080-21.924-7.56-31.808-13.314L 91.938,339.914
			c-10.948,10.962-28.728,10.962-39.69,0L 42.322,330.002c-10.962-10.962-10.962-28.742,0-39.704L 58.786,273.82c-5.362-9.534-9.52-19.81-12.418-30.618
			L 28.070,243.202 C 12.558,243.216,0,230.644,0,215.132l0-14.028 c0-15.498, 12.558-28.070, 28.070-28.070l 18.522,0 c 3.024-10.906, 7.336-21.238, 12.866-30.842
			l-17.136-17.122c-10.962-10.962-10.962-28.742,0-39.704l 9.926-9.926c 10.962-10.962, 28.742-10.962, 39.69,0l 17.234,17.234
			c 9.576-5.446, 19.866-9.688, 30.716-12.642l0-17.976 c0-15.484, 12.572-28.070, 28.084-28.070l 14.028,0 c 15.498,0, 28.070,12.572, 28.070,28.070l0,17.976 
			c 10.85,2.954, 21.168,7.21, 30.716,12.642l 17.234-17.234C 269.010,64.492, 286.776,64.492, 297.752,75.454z M 175,130.502
			c-42.63,0-77.196,34.552-77.196,77.196c0,42.63, 34.566,77.196, 77.196,77.196s 77.196-34.566, 77.196-77.196
			C 252.196,165.054, 217.63,130.502, 175,130.502z M 175,243.65c-19.39,0-35.098-15.708-35.098-35.084s 15.708-35.084, 35.098-35.084
			c 19.376,0, 35.084,15.708, 35.084,35.084S 194.376,243.65, 175,243.65z M 350.868-20.068c-9.408,0-17.024-7.616-17.024-17.024
			c0-9.394, 7.616-17.010, 17.024-17.010c 9.394,0, 17.024,7.616, 17.024,17.010C 367.892-27.684, 360.262-20.068, 350.868-20.068z M 422.128-20.278
			l-8.876,0 c-1.414,5.236-3.43,10.22-6.034,14.854l 7.98,7.98c 5.32,5.32, 5.32,13.944,0,19.25l-4.816,4.816c-5.32,5.32-13.93,5.32-19.25,0
			l-7.84-7.826c-4.788,2.786-9.968,4.956-15.428,6.454l0,9.128 c0,7.518-6.104,13.622-13.622,13.622l-6.804,0 
			c-7.518,0-13.622-6.104-13.622-13.622l0-9.128 c-5.474-1.498-10.64-3.668-15.428-6.454l-7.84,7.826c-5.32,5.32-13.944,5.32-19.25,0
			l-4.816-4.816c-5.32-5.306-5.32-13.93,0-19.25l 7.98-7.98c-2.618-4.62-4.62-9.618-6.034-14.854l-8.876,0 
			c-7.518,0-13.622-6.104-13.622-13.622l0-6.804 c0-7.518, 6.104-13.622, 13.622-13.622l 8.988,0 c 1.456-5.278, 3.556-10.29, 6.23-14.952
			l-8.302-8.302c-5.32-5.32-5.32-13.93,0-19.264l 4.816-4.816c 5.306-5.306, 13.93-5.306, 19.25,0l 8.358,8.372
			c 4.648-2.632, 9.632-4.704, 14.896-6.132l0-8.722 c0-7.518, 6.104-13.622, 13.622-13.622l 6.804,0 c 7.518,0, 13.622,6.104, 13.622,13.622l0,8.722 
			c 5.264,1.428, 10.248,3.486, 14.882,6.132l 8.372-8.372c 5.32-5.306, 13.93-5.306, 19.25,0l 4.816,4.816c 5.32,5.334, 5.32,13.944,0,19.264
			l-8.302,8.302c 2.66,4.662, 4.774,9.674, 6.23,14.952l 8.988,0 c 7.518,0, 13.622,6.104, 13.622,13.622L 435.694-33.9 
			C 435.75-26.368, 429.646-20.278, 422.128-20.278z M 350.868-74.948c-20.678,0-37.436,16.758-37.436,37.45c0,20.678, 16.758,37.436, 37.436,37.436
			s 37.436-16.758, 37.436-37.436C 388.304-58.19, 371.546-74.948, 350.868-74.948z"  />
<glyph unicode="&#xe04a;" d="M 372.022,181L 399,181 l0-42 l-26.978,0 c-1.834-13.384-5.236-26.264-10.276-38.318l 23.366-13.496
	l-21-36.372l-23.772,13.72c-8.162-10.304-17.64-19.488-28.154-27.412l 14-24.234l-36.372-21l-14.294,24.738
	c-11.886-4.634-24.43-7.868-37.534-9.422L 237.986-22 l-42,0 l0,30.002 c-12.768,1.974-25.074,5.334-36.596,10.234l-15.218-26.348l-36.372,21l 15.582,26.992
	c-9.758,7.826-18.466,16.842-26.068,26.782l-27.454-15.848l-21,36.372l 27.706,16.002c-4.494,11.354-7.644,23.352-9.352,35.826L 35,139.014 l0,42 l 32.228,0 
	c 1.708,12.488, 4.858,24.486, 9.352,35.826l-27.706,16.002l 21,36.372l 27.454-15.848c 7.602,9.94, 16.31,18.956, 26.068,26.796L 107.814,307.112
	l 36.372,21l 15.218-26.348c 11.522,4.9, 23.828,8.274, 36.596,10.234L 196,342 l 42,0 l0-29.19 c 13.104-1.554, 25.648-4.788, 37.534-9.422l 14.294,24.738l 36.372-21
	l-14-24.248c 10.514-7.924, 19.992-17.108, 28.154-27.412l 23.772,13.72l 21-36.372l-23.366-13.496C 366.786,207.264, 370.188,194.384, 372.022,181z
	 M 216.874,251.126c-50.26,0-91-40.74-91-91s 40.74-91, 91-91s 91,40.74, 91,91S 267.134,251.126, 216.874,251.126z M 217,125
	c-19.334,0-35,15.666-35,35s 15.666,35, 35,35S 252,179.334, 252,160S 236.334,125, 217,125z"  />
<glyph unicode="&#xe058;" d="M 392.756,124.006c0-97.062-78.68-175.756-175.756-175.756
	c-97.062,0-175.756,78.694-175.756,175.756c0,94.108, 74.004,170.688, 166.978,175.294L 208.222,329.624 l-13.174,0 c-7.77,0-14.070,6.3-14.070,14.070
	s 6.3,14.056, 14.070,14.056l 42.168,0 c 7.77,0, 14.070-6.286, 14.070-14.056s-6.3-14.070-14.070-14.070l-14.924,0 l0-30.142 
	C 316.89,296.682, 392.756,219.276, 392.756,124.006z M 208.222,245.274L 208.222,277.348 c-43.526-2.464-82.124-22.96-108.724-54.012l 23.142-23.142l-9.94-9.954
	l-21.91,21.924c-17.836-25.172-28.448-55.818-28.448-89.026c0-1.484, 0.21-3.514, 0.21-3.514L 96.6,119.624 l0-14.070 L 63.56,105.554 
	c 3.416-28.728, 14.798-55.818, 31.752-77.476l 17.402,17.402l 9.94-9.94l-18.144-18.158c 26.306-27.944, 62.832-46.158, 103.712-48.468L 208.222,7.12 l 14.056,0 l0-38.388 
	c 41.846,1.428, 79.38,19.502, 106.386,47.74l-19.936,19.936l 9.94,9.94l 19.278-19.264c 17.36,21.84, 29.036,49.294, 32.508,78.456l-35.7,0 l0,14.070 l 36.694,0 
	c 0.042,1.456, 0.224,2.030, 0.224,3.514c0,34.132-11.2,65.534-29.932,91.070l-23.072-23.072l-9.94,9.94l 24.164,24.15
	c-27.258,30.842-66.542,50.834-110.6,52.318l0-32.256 L 208.222,245.274 z M 223.146,119.61l 49.224,0 c 3.878,0, 7.028-3.164, 7.028-7.028
	c0-3.878-3.15-7.042-7.028-7.042l-56.252,0 c-3.878,0-7.028,3.164-7.028,7.042L 209.090,210.12 c0,3.878, 3.15,7.028, 7.028,7.028
	s 7.028-3.15, 7.028-7.028L 223.146,119.61 z"  />
<glyph unicode="&#xe053;" d="M 322,104c-7.742,0-14,6.272-14,14l0,84 c0,7.742, 6.258,14, 14,14c 7.728,0, 14-6.258, 14-14l0-84 
	C 336,110.272, 329.728,104, 322,104z M 279.972,283.074C 293.944,258.966, 294,230, 294,230L 154,230 c0,0-0.546,29.344, 13.566,53.536l-26.362,26.362
	c-2.73,2.73-2.73,7.168,0,9.898s 7.168,2.73, 9.898,0l 24.724-24.724C 186.186,306.538, 201.46,314.868, 224,314.868
	c 22.26,0, 37.394-8.554, 47.74-20.216l 25.158,25.144c 2.73,2.73, 7.168,2.73, 9.898,0s 2.73-7.168,0-9.898L 279.972,283.074z M 189,272
	C 185.136,272, 182,268.864, 182,265S 185.136,258, 189,258C 192.85,258, 196,261.136, 196,265S 192.85,272, 189,272z M 259,272C 255.136,272, 252,268.864, 252,265
	S 255.136,258, 259,258C 262.85,258, 266,261.136, 266,265S 262.85,272, 259,272z M 140,118c0-7.728-6.272-14-14-14c-7.742,0-14,6.272-14,14l0,84 
	c0,7.742, 6.258,14, 14,14c 7.728,0, 14-6.258, 14-14L 140,118 z M 294,90c0-18.27-11.732-33.628-28-39.424L 266,6 c0-7.728-6.272-14-14-14c-7.742,0-14,6.272-14,14l0,42 
	l-28,0 l0-42 c0-7.728-6.272-14-14-14c-7.742,0-14,6.272-14,14l0,44.576 c-16.282,5.796-28,21.168-28,39.424l0,126 l 140,0 L 294,90 z"  />
<glyph unicode="&#xe052;" d="M 371.872-29.92l-36.678,10.064l-0.084,101.453l 35.085-9.868l 50.586,188.829L 164.536,329.219
	l-16.886-62.985L 118.744,266.234 l 26.041,97.176l 310.215-83.114L 371.872-29.92z M 322.040-63.649L0-63.649 L0,257.525 l 322.040,0 L 322.040-63.649 z M 294.113,229.597L 27.928,229.597 l0-195.483 l 266.185,0 
	L 294.113,229.597 z M 109.714,90.207l 31.912,51.607l 31.912-32.163l 43.877,66.075l 45.89-113.697L 59.84,62.028 l 25.929,51.859L 109.714,90.207z M 90.633,144.82
	c-11.574,0-20.953,9.365-20.953,20.939s 9.379,20.939, 20.953,20.939s 20.939-9.365, 20.939-20.939S 102.208,144.82, 90.633,144.82z" horiz-adv-x="455"  />
<glyph unicode="&#xe051;" d="M 388.262,109.11l-18.424-68.796l-0.518-0.14l-20.132-75.138l-130.144,34.86l-1.554-0.406
	l-137.032,36.708l-0.238,0.896L 43.75,46.88l 6.902,25.774l 0.448-0.126L 118.706,324.836L 118.258,324.962l 7.126,26.558l 239.47-64.176l 0.224,0.784
	l 65.954-17.668L 388.024,110.020L 388.262,109.11z M 397.348,251.028L 145.026,318.634l-49.812-185.92l 252.294-67.592L 397.348,251.028z M 171.276,196.512
	l 16.716-28.63l 43.498,40.95l 22.162-38.724l 58.59,51.646l 14.658-119.826L 133.392,153.812L 171.276,196.512z M 183.778,224.68
	c-10.99,2.954-17.528,14.266-14.574,25.256c 2.94,11.004, 14.252,17.542, 25.256,14.588c 10.99-2.954, 17.528-14.266, 14.574-25.256
	C 206.094,228.264, 194.782,221.726, 183.778,224.68z M 302.96,321.294l-5.796-1.554l-53.13,14.238l 78.372,21l 12.124-45.234l-30.66,8.218L 302.96,321.294
	z M 50.638,253.674l 17.388-64.89l-14.238-53.116L 16.968,273.12L 96.32,294.386l-8.218-30.66L 50.638,253.674z M 98.812-32.304L 84.56,20.868l 106.358-28.504
	L 98.812-32.304z"  />
<glyph unicode="&#xe050;" d="M 273.994,232.002l-44.016-66.248l-31.99,32.242l-32.004-51.758l-23.996,23.758L 116.004,118
			l 204.008,0 L 273.994,232.002z M 56,314l0-322 l 322,0 L 378,314 L 56,314 z M 350,90L 84,90 L 84,286 l 266,0 L 350,90 z M 146.874,201.006c 11.606,0, 21,9.394, 21,21s-9.394,21-21,21
			c-11.592,0-21-9.394-21-21S 135.282,201.006, 146.874,201.006z"  />
<glyph unicode="&#xe04f;" d="M 392-22L 56-22 c-15.456,0-28,12.544-28,28l0,126 l 56,0 l0-42 l 56,0 l0,42 l 168,0 l0-42 l 56,0 l0,42 l 56,0 l0-126 
	C 420-9.456, 407.456-22, 392-22z M 322,104l0,56 l 28,0 l0-56 L 322,104 z M 98,104l0,56 l 28,0 l0-56 L 98,104 z M 364,174l-56,0 l0-28 L 140,146 l0,28 L 84,174 l0-28 L 28,146 l0,98 c0,15.456, 12.544,28, 28,28l 336,0 
	c 15.456,0, 28-12.544, 28-28l0-98 l-56,0 L 364,174 z M 266,314.294l-84,0 L 182,286 l-28,0 L 154,299.706 l 14,0 L 168,342 l 112.294,0 l0-42 L 294,300 l0-14 l-28,0 L 266,314.294 z"  />
<glyph unicode="&#xe04e;" d="M 378-22L 56-22 c-15.47,0-28,12.544-28,28L 28,174 c0,0, 73.094-37.59, 140-52.976L 168,104 
	c0-7.742, 6.258-14, 14-14l 70,0 c 7.728,0, 14,6.258, 14,14l0,17.024 C 332.892,136.41, 406,174, 406,174l0-168 C 406-9.456, 393.456-22, 378-22z M 238,146
	c 7.728,0, 14-6.258, 14-14l0-14 c0-7.742-6.272-14-14-14l-42,0 c-7.742,0-14,6.258-14,14l0,14 c0,7.742, 6.258,14, 14,14L 238,146 z M 266,146c0,7.742-6.272,14-14,14l-70,0 
	c-7.742,0-14-6.258-14-14l0-12.544 C 101.094,149.304, 28,188, 28,188l0,56 c0,15.456, 12.53,28, 28,28l 84,0 L 140,300 c0,15.456, 12.544,28, 28,28l 98,0 c 15.456,0, 28-12.544, 28-28l0-28 l 84,0 
	c 15.456,0, 28-12.544, 28-28l0-56 c0,0-73.108-38.696-140-54.544L 266,146 z M 266,286c0,7.742-6.272,14-14,14l-70,0 c-7.742,0-14-6.258-14-14c0-7.728,0-14,0-14l 98,0 
	C 266,272, 266,278.272, 266,286z"  />
<glyph unicode="&#xe04d;" d="M 378-22l-56,0 L 322,272 l 56,0 c 15.456,0, 28-12.544, 28-28l0-238 C 406-9.456, 393.456-22, 378-22z M 140,272L 140,272L 140,300 
	c0,15.47, 12.544,28, 28,28l 98,0 c 15.456,0, 28-12.53, 28-28l0-28 l0-294 L 140-22 L 140,272 z M 168,272l 98,0 c0,0,0,6.272,0,14c0,7.742-6.272,14-14,14l-70,0 c-7.742,0-14-6.258-14-14
	C 168,278.272, 168,272, 168,272z M 28,6L 28,244 c0,15.456, 12.544,28, 28,28l 56,0 l0-294 L 56-22 C 40.544-22, 28-9.456, 28,6z"  />
<glyph unicode="&#xe04c;" d="M 378-8.434l-28,0 l0-27.132 l-56,0 l0,27.132 L 140-8.434 l0-27.132 L 84-35.566 l0,27.132 L 56-8.434 c-15.47,0-28,12.544-28,28l0,238 
	c0,15.47, 12.53,28, 28,28l 322,0 c 15.456,0, 28-12.544, 28-28l0-238 C 406,4.096, 393.456-8.434, 378-8.434z M 293.986,159.566L 238,159.566 l0,56 l-42,0 l0-56 l-56,0 l0-42 l 56,0 l0-56 l 42,0 l0,56 l 55.986,0 
	L 293.986,159.566 z M 266,327.86l-84,0 l0-28.294 l-28,0 L 154,313.272 l 14,0 L 168,355.566 l 111.412,0 l0-42 L 294,313.566 l0-14 l-28,0 L 266,327.86 z"  />
<glyph unicode="&#xe04b;" d="M 427.77,30.934L 252.504,331.038c-14.616,14.616-38.332,14.616-52.948,0L 24.276,30.934
			c-14.616-14.602-14.616-38.304,0-52.934l 403.48,0 C 442.4-7.37, 442.4,16.332, 427.77,30.934z M 209.888,223.308c0,11.606, 9.408,21, 21,21
			s 21-9.394, 21-21l0-98 c0-11.592-9.408-21-21-21s-21,9.408-21,21L 209.888,223.308 z M 231.014,34.196c-11.592,0-21,9.38-21,21
			c0,11.592, 9.408,21, 21,21s 21-9.408, 21-21C 252.014,43.576, 242.606,34.196, 231.014,34.196z"  />
<glyph unicode="&#xe05a;" d="M 381.206,177.15c-19.236,53.298-66.15,94.206-124.474,107.226
	c 14.938,21.448, 39.704,35.546, 67.83,35.546c 45.696,0, 82.726-37.044, 82.726-82.74C 407.288,213.466, 397.18,192.228, 381.206,177.15z M 222.096,316.814
	l0-52.024 c 79.38-3.234, 142.786-68.432, 142.786-148.596c0-33.488-11.186-64.288-29.82-89.138l 34.496-59.766l-28.658-16.562l-29.526,51.156
	c-25.844-21.602-59.094-34.636-95.396-34.636c-36.106,0-69.202,12.866-94.976,34.23L 90.692-50.98l-28.658,16.562l 35.224,60.984
	c-18.872,24.948-30.184,55.93-30.184,89.628c0,79.632, 62.552,144.466, 141.176,148.512L 208.25,316.814 c-8.022,2.87-13.846,10.36-13.846,19.39
	c0,11.48, 9.31,20.776, 20.776,20.776c 11.48,0, 20.79-9.31, 20.79-20.776C 235.956,327.174, 230.132,319.684, 222.096,316.814z M 100.142,116.194
	c0-63.98, 51.856-115.822, 115.822-115.822c 63.952,0, 115.822,51.842, 115.822,115.822c0,63.952-51.87,115.808-115.822,115.808
	C 151.998,232.016, 100.142,180.146, 100.142,116.194z M 250.684,91.148l-41.566,0 c-7.658,0-13.86,6.202-13.86,13.86l0,55.426 
	c0,7.658, 6.202,13.86, 13.86,13.86c 7.644,0, 13.846-6.202, 13.846-13.86l0-41.566 l 27.706,0 c 7.658,0, 13.86-6.202, 13.86-13.86
	S 258.342,91.148, 250.684,91.148z M 52.808,177.15c-15.988,15.092-26.096,36.316-26.096,60.032c0,45.696, 37.044,82.74, 82.74,82.74
	c 28.112,0, 52.864-14.098, 67.83-35.546C 118.958,271.356, 72.044,230.448, 52.808,177.15z"  />
<glyph unicode="&#xe05b;" d="M 545.678,215.24l-27.983-0.294l0,28.571 c0,23.184-18.805,41.976-41.976,41.976L 41.976,285.492 c-23.184,0-41.976-18.791-41.976-41.976l0-153.909 
			c0-23.17, 18.791-41.976, 41.976-41.976l 55.673,0 l-0.294-13.124L 419.752,34.507 l-0.294,13.124L 475.719,47.632 c 23.17,0, 41.976,18.805, 41.976,41.976l0,28.851 l 28.557,0 L 545.678,215.24z M 503.703,89.607
			c0-15.447-12.537-27.983-27.983-27.983L 41.976,61.624 c-15.447,0-27.983,12.537-27.983,27.983l0,153.909 c0,15.447, 12.537,27.983, 27.983,27.983l 433.745,0 c 15.447,0, 27.983-12.537, 27.983-27.983L 503.703,89.607 z M 475.719,257.508L 41.976,257.508 
			c-7.738,0-13.992-6.255-13.992-13.992l0-153.909 c0-7.738, 6.255-13.992, 13.992-13.992l 433.745,0 c 7.724,0, 13.992,6.255, 13.992,13.992l0,153.909 C 489.711,251.24, 483.443,257.508, 475.719,257.508z M 451.192,215.771
			l-11.193-10.494l-34.014,0 l-9.515,10.494L 451.192,215.771 z M 438.362,172.047l 4.897-5.191l-5.877-5.191l-36.546,0 l-4.631,5.191l 5.596,5.191L 438.362,172.047 z M 394.385,213.924
			l 9.501-10.494l-2.364-27.983l-7.136-6.577l-3.638,3.917L 394.385,213.924z M 303.579,213.924l 9.501-10.494l-2.364-27.983l-7.136-6.577l-3.638,3.917
			L 303.579,213.924z M 347.513,172.047l 4.911-5.191l-5.891-5.191l-36.504,0 l-4.617,5.191l 5.582,5.191L 347.513,172.047 z M 163.774,213.924l 9.501-10.494
			l-2.448-27.983l-7.066-6.591l-3.596,3.917L 163.774,213.924z M 207.694,172.047l 4.911-5.191l-5.877-5.191l-36.56,0 l-4.561,5.191l 5.582,5.191
			L 207.694,172.047 z M 129.774,215.771l-11.207-10.494l-34,0 l-9.515,10.494L 129.774,215.771 z M 72.967,213.924l 9.515-10.494l-2.462-27.983l-7.066-6.591l-3.596,3.917
			L 72.967,213.924z M 68.308,160.895l 4.197,4.043l 6.017-6.563l-2.35-27.997l-11.445-10.494L 68.308,160.895z M 66.461,117.941l 11.473,10.494l 33.944,0 
			l 9.361-10.494L 66.461,117.941 z M 123.337,119.914l-9.403,10.48l 2.35,27.997l 7.15,6.563l 3.498-4.043L 123.337,119.914z M 127.969,172.788l-4.099-3.917
			l-6.087,6.591l 2.448,27.983l 11.361,10.494L 127.969,172.788z M 159.114,160.895l 4.197,4.043l 6.017-6.563l-2.35-27.997l-11.445-10.48L 159.114,160.895z
			 M 157.253,117.941l 11.473,10.494l 33.958,0 l 9.361-10.494L 157.253,117.941 z M 214.144,119.9l-9.375,10.494l 2.364,27.983l 7.15,6.577l 3.512-4.043L 214.144,119.9z
			 M 209.387,205.277l-34,0 l-9.529,10.494l 54.708,0 L 209.387,205.277z M 259.897,117.941l-10.494,0 l 0.965,10.494l 10.494,0 L 259.897,117.941z M 266.053,188.99
			l-10.494,0 l 0.979,10.494l 10.494,0 L 266.053,188.99z M 297.143,117.941l 11.333,10.494l 34,0 l 9.375-10.494L 297.143,117.941 z M 353.949,119.914l-9.389,10.48l 2.378,27.983
			l 7.15,6.577l 3.498-4.043L 353.949,119.914z M 349.192,205.277l-34,0 l-9.529,10.494l 54.708,0 L 349.192,205.277z M 387.95,117.941l 11.347,10.494l 34,0 
			l 9.375-10.494L 387.95,117.941 z M 444.755,119.914l-9.403,10.48l 2.35,27.997l 7.15,6.563l 3.498-4.043L 444.755,119.914z M 449.401,172.788l-4.113-3.917
			l-6.087,6.591l 2.462,27.983l 11.361,10.494L 449.401,172.788z" horiz-adv-x="546"  />
<glyph unicode="&#xe05c;" d="M 224,335c-100.534,0-182-81.48-182-182s 81.466-182, 182-182c 100.506,0, 182,81.48, 182,182
			S 324.52,335, 224,335z M 222.53,5.622c-81.186,0-147,65.814-147,147c0,81.186, 65.814,147, 147,147c 81.172,0, 147-65.814, 147-147
			C 369.53,71.436, 303.702,5.622, 222.53,5.622z M 265.020,144.166l-41.72,0 l0,70.448 c0,7.644-6.202,13.86-13.846,13.86
			c-7.658,0-13.86-6.202-13.86-13.86l0-84.294 c0-7.658, 6.202-13.846, 13.86-13.846l 55.566,0 c 7.658,0, 13.86,6.188, 13.86,13.846
			C 278.88,137.964, 272.678,144.166, 265.020,144.166z"  />
<glyph unicode="&#xe05d;" d="M 336-8l0,28 l-0.35,0 C 335.776,22.324, 336,24.634, 336,27L 336,146 l0,35 
	C 336,246.716, 282.716,300, 217,300S 98,246.716, 98,181L 98,146 l0-119 c0-2.366, 0.224-4.676, 0.35-7L 98,20 l0-28 c0,0-70,1.176-70,77c0,43.008, 22.498,61.978, 42,70.35
	L 70,181 C 70,262.186, 135.814,328, 217,328S 364,262.186, 364,181l0-41.65 c 19.502-8.386, 42-27.342, 42-70.35C 406-6.824, 336-8, 336-8z M 126-8L 112-8 L 112,146 l 14,0 L 126-8 z M 322-8
	l-14,0 L 308,146 l 14,0 L 322-8 z"  />
<glyph unicode="&#xe05e;" d="M 252,76c-15.456,0-28,12.544-28,28l0,28 c0,15.47, 12.544,28, 28,28l 168,0 l0-84 L 252,76 z M 273,137.838
	c-11.592,0-21-9.408-21-21c0-11.606, 9.408-21, 21-21c 11.606,0, 21,9.394, 21,21C 294,128.43, 284.606,137.838, 273,137.838z M 210,132l0-28 
	c0-23.184, 18.816-42, 42-42l 140,0 l0-56 c0-23.184-18.802-42-42-42L 56-36 c-23.184,0-42,18.816-42,42L 14,272 c0,23.198, 18.816,42, 42,42l 134.848,0 l-32.886-13.706L 49.014,300.294 
	c-11.592,0-21-9.408-21-21c0-11.606, 9.408-21, 21-21L 392,258.294 L 392,174 L 252,174 C 228.816,174, 210,155.198, 210,132z M 70.014,230l-28,0 l0-28 l 14,0 l0,14 l 14,0 L 70.014,230 z M 70.014,188
	l-28,0 l0-28 l 14.574,0 l-0.574,14l 14-0.294L 70.014,188 z M 70.014,146l-28,0 l0-28 l 14.294,0 l-0.294,14l 14,0 L 70.014,146 z M 70.014,104l-28,0 l0-28 l 14.294,0 l-0.294,14l 14-0.294L 70.014,104 z M 70.014,62l-28,0 l0-28 l 14,0 
	l0,14 l 14,0 L 70.014,62 z M 70.014,20l-28,0 l0-28 l 14.294,0 l-0.294,13.706l 14,0 L 70.014,20 z M 126.014,272.868L 290.514,342l 31.5-69.132L 126.014,272.868 z M 317.044,314L 350,314 
	c 12.264,0, 23.184-5.334, 30.87-13.706l-57.134,0 L 317.044,314z"  />
<glyph unicode="&#xe05f;" d="M 405.972,264.566l-29.876,29.876c-5.516,5.502-14.42,5.502-19.922,0L 177.044,115.312
	L 91.84,201.132c-5.502,5.502-14.406,5.502-19.922,0l-29.876-29.876c-5.502-5.516-5.502-14.42,0-19.922l 124.936-125.776
	c 5.502-5.502, 14.42-5.502, 19.922,0L 405.972,244.644C 411.474,250.132, 411.474,259.064, 405.972,264.566z"  />
<glyph unicode="&#xe060;" d="M 274.218,159.986l 85.344-85.344c 5.544-5.544, 5.544-14.546,0-20.090l-30.114-30.114
	c-5.544-5.544-14.532-5.544-20.090,0L 224,109.782l-85.358-85.344c-5.544-5.544-14.532-5.544-20.076,0l-30.128,30.114
	c-5.544,5.544-5.544,14.532,0,20.090l 85.358,85.344L 88.438,245.344c-5.544,5.544-5.544,14.546,0,20.090L 118.58,295.548
	c 5.544,5.544, 14.532,5.544, 20.076,0L 224,210.19l 85.358,85.358c 5.544,5.544, 14.532,5.544, 20.090,0l 30.114-30.128
	c 5.544-5.544, 5.544-14.532,0-20.090L 274.218,159.986z"  />
<glyph unicode="&#xe061;" d="M 240.268,323.226C 92.4,323.226,0,160,0,160s 91.518-163.226, 240.268-163.226
			C 379.4-3.226, 485.002,160, 485.002,160S 380.268,323.226, 240.268,323.226z M 241.584,86.486c-40.516,0-73.332,32.83-73.332,73.332
			s 32.83,73.346, 73.332,73.346s 73.346-32.844, 73.346-73.346S 282.086,86.486, 241.584,86.486z M 242.032,196.484c-20.16,0-36.498-16.352-36.498-36.498
			c0-20.16, 16.338-36.498, 36.498-36.498s 36.498,16.338, 36.498,36.498C 278.544,180.132, 262.206,196.484, 242.032,196.484z" horiz-adv-x="490"  />
<glyph unicode="&#xe065;" d="M 390.222-8c0,0, 77.28-0.084, 88.13,75.53c 5.166,82.684-74.704,98.98-74.704,98.98
	s 9.086,122.402-103.054,136.36c-96.11,9.814-125.356-79.506-125.356-79.506s-28.952,27.832-68.222,5.096c-35.154-21.7-28.938-61.432-28.938-61.432
	S0,151.852,0,72.276C 1.75-7.202, 84.798-8, 84.798-8" horiz-adv-x="490"  />
<glyph unicode="&#xe066;" d="M 411.964,166.51c0,0, 9.086,122.402-103.054,136.36c-96.11,9.814-125.37-79.506-125.37-79.506
	s-28.938,27.832-68.208,5.096c-35.154-21.7-28.938-61.432-28.938-61.432s-78.064-15.176-78.064-94.752C 10.066-7.202, 93.086-8, 93.086-8L 224-8 l0,84 l-42,0 
	l 70,70l 70-70l-42,0 l0-84 l 118.538,0 c0,0, 77.28-0.084, 88.13,75.53C 491.834,150.214, 411.964,166.51, 411.964,166.51z" horiz-adv-x="490"  />
<glyph unicode="&#xe075;" d="M 364-64L 70-64 C 54.53-64, 42-51.456, 42-36L 42,300 C 42,315.47, 54.53,328, 70,328l0-336 c0-15.456, 12.544-28, 28-28L 154-36 
	C 169.47-36, 182-23.456, 182-8L 182,328 l 182,0 c 15.47,0, 28-12.544, 28-28l0-336 C 392-51.456, 379.47-64, 364-64z M 294-22l 28,0 l0,28 l-28,0 L 294-22 z M 294,20l 28,0 l0,28 l-28,0 L 294,20 z M 294,62
	l 28,0 l0,28 l-28,0 L 294,62 z M 294,104l 28,0 l0,28 l-28,0 L 294,104 z M 252-22l 28,0 l0,28 l-28,0 L 252-22 z M 252,20l 28,0 l0,28 l-28,0 L 252,20 z M 252,62l 28,0 l0,28 l-28,0 L 252,62 z M 252,104l 28,0 l0,28 l-28,0 L 252,104 z M 364,286
	c0,7.742-6.258,14-14,14l-126,0 c-7.728,0-14-6.258-14-14l0-56 c0-7.728, 6.272-14, 14-14l 126,0 c 7.742,0, 14,6.272, 14,14L 364,286 z M 364,132l-28,0 l0-28 l 28,0 L 364,132 z M 364,90l-28,0 l0-28 l 28,0 L 364,90 z
	 M 364,48l-28,0 l0-28 l 28,0 L 364,48 z M 364,6l-28,0 l0-28 l 28,0 L 364,6 z M 154-22L 98-22 c-7.728,0-14,6.258-14,14L 84,342 c0,7.742, 6.272,14, 14,14l 27.132,0 L 125.132,384 L 140,384 l0-28 l 14,0 C 161.728,356, 168,349.742, 168,342
	l0-350 C 168-15.742, 161.728-22, 154-22z"  />
<glyph unicode="&#xe074;" d="M 214.634,107.36c-0.364,0.252-42.476,71.050-42.616,71.96c-8.708,19.026-15.736,38.486-1.092,47.124l-60.774,102.48
			C 94.402,317.15, 49.854,253.254, 133.238,108.452c 87.836-152.6, 171.43-146.258, 188.188-135.926l-59.22,100.030
			C 248.206,64.324, 236.418,77.89, 214.634,107.36z M 362.068,11.362l 0.014,0.084c0,0-46.242,77.924-46.27,77.952
			c-3.668,6.174-11.55,8.12-17.696,4.536l-28.336-16.758l 59.388-100.324c0,0, 28.336,16.674, 28.322,16.73l 0.056,0 
			C 364.056-2.554, 365.554,5.426, 362.068,11.362z M 207.004,247.696L 207.004,247.752 c 6.51,3.85, 8.036,11.83, 4.55,17.71l 0.028,0.084
			c0,0-47.572,80.206-47.6,80.22c-3.654,6.202-11.564,8.12-17.682,4.536L 117.964,333.544l 60.704-102.536C 178.668,231.008, 206.99,247.654, 207.004,247.696
			z"  />
<glyph unicode="&#xe073;" d="M 389.088,30.108l 0.014-25.55L 96.922,4.558 L 328.72,236.37
	c-0.42-57.106-0.294-128.464, 31.192-158.27C 395.682,44.22, 389.088,30.108, 389.088,30.108z M 58.436,6.28L 356.146,303.976l 9.912-9.926
	L 68.362-3.646L 58.436,6.28z M 109.928,78.1c 35.77,33.88, 31.066,121.408, 31.066,180.712s 83.272,60.55, 83.272,60.55l 2.842,0 
	c0-0.028,0,0.406,0,9.632c0,5.922-19.88,27.37-19.88,27.37l-0.294,12.978l 56.14,0 l-0.392-13.468c0,0-21.532-21.434-21.532-27.748
	c0-6.104,0-8.148,0-8.75l 4.438,0 c0,0, 53.214-0.896, 74.522-31.57L 97.384,65.066C 100.87,69.056, 104.888,73.34, 109.928,78.1z M 270.088-8.98
	c0-19.39-15.708-40.362-35.084-40.362c-19.39,0-35.098,20.972-35.098,40.362C 199.906-9.414, 270.088-8.532, 270.088-8.98z"  />
<glyph unicode="&#xe072;" d="M 378.182,30.108l0-25.55 L 69.818,4.558 l0,25.55 c0,0-6.594,14.126, 29.19,48.006
	C 134.764,111.98, 130.060,199.522, 130.060,258.812s 83.272,60.55, 83.272,60.55l 2.856,0 c0-0.028,0,0.406,0,9.632c0,5.922-19.88,27.37-19.88,27.37
	l-0.294,12.978l 56.14,0 l-0.378-13.468c0,0-21.546-21.434-21.546-27.748c0-6.104,0-8.148,0-8.75l 4.438,0 c0,0, 83.272-1.26, 83.272-60.55
	S 313.236,111.98, 349.006,78.1S 378.182,30.108, 378.182,30.108z M 259.168-8.98c0-19.39-15.708-40.362-35.084-40.362S 189-28.37, 189-8.98
	C 189-9.414, 259.168-8.532, 259.168-8.98z"  />
<glyph unicode="&#xe070;" d="M 117.87,255.697l 293.005,0 c 30.17,0, 30.17,31.288, 1.174,31.288L 209.528,286.985 
			c-11.604,0-17.392,17.392-17.392,17.392S 184.013,329.892, 167.767,329.892L 16.93,329.892 c-22.033,0-16.245-25.515-16.245-25.515s 33.652-286.183, 35.972-303.588
			S 56.971-21.748, 56.971-21.748l 39.439,253.090C 99.318,249.895, 112.068,255.11, 117.87,255.697z M 470.558,244.695L 127.153,244.695 c-10.248,0-18.567-8.305-18.567-18.553
			l-35.958-229.281c0-10.262, 8.319-18.567, 18.567-18.567l 343.405,0 c 10.234,0, 18.567,8.305, 18.567,18.567l 35.958,229.281
			C 489.125,236.39, 480.834,244.695, 470.558,244.695z" horiz-adv-x="489.125"  />
<glyph unicode="&#xe06f;" d="M0,188l0,42 l 52.5,0 l 105.434,105.448C 157.234,337.534, 156.632,339.662, 156.632,342
	c0,11.606, 9.394,21, 21,21c 11.592,0, 21-9.394, 21-21c0-11.592-9.408-21-21-21c-1.554,0-2.926,0.574-4.368,0.882L 81.368,230l 270.956,0 
	l-91.35,92.106C 259.168,321.602, 257.446,321, 255.5,321c-11.592,0-21,9.408-21,21c0,11.606, 9.408,21, 21,21s 21-9.394, 21-21
	c0-2.142-0.63-4.102-1.232-6.062L 381.206,230L 434,230 l0-42 L0,188 z M 348.166-20.628c-4.102-16.408-15.47-15.498-15.47-15.498L 100.366-36.574
	c-11.844,0-15.022,15.008-15.022,15.008L 23.926,173.804l 386.036,0.364L 348.166-20.628z M 139.986,146l-14,0 l0-70 l 14,0 L 139.986,146 z M 139.986,62l-14,0 l0-70 l 14,0 L 139.986,62 z M 167.986,146
	L 154,146 l0-70 l 13.986,0 L 167.986,146 z M 167.986,62L 154,62 l0-70 l 13.986,0 L 167.986,62 z M 195.986,146l-14,0 l0-70 l 14,0 L 195.986,146 z M 195.986,62l-14,0 l0-70 l 14,0 L 195.986,62 z M 224,146l-14,0 l0-70 l 14,0 L 224,146 z M 224,62l-14,0 l0-70 l 14,0 L 224,62 z
	 M 252,146l-14,0 l0-70 l 14,0 L 252,146 z M 252,62l-14,0 l0-70 l 14,0 L 252,62 z M 280,146l-14,0 l0-70 l 14,0 L 280,146 z M 280,62l-14,0 l0-70 l 14,0 L 280,62 z M 308,146l-14,0 l0-70 l 14,0 L 308,146 z M 308,62l-14,0 l0-70 l 14,0 L 308,62 z"  />
<glyph unicode="&#xe06e;" d="M 411.964,166.51c0,0, 9.072,122.402-103.054,136.36c-96.124,9.814-125.37-79.506-125.37-79.506
	s-28.938,27.832-68.222,5.096c-35.14-21.7-28.938-61.432-28.938-61.432s-78.064-15.162-78.064-94.752C 10.066-7.202, 93.086-8, 93.086-8L 252-8 l-70,70l 42,0 
	l0,84 l 56,0 l0-84 l 42,0 l-70-70l 146.538,0 c0,0, 77.28-0.084, 88.13,75.53C 491.834,150.214, 411.964,166.51, 411.964,166.51z" horiz-adv-x="490"  />
<glyph unicode="&#xe06d;" d="M 156.282,222.244c0,37.17, 30.324,67.298, 67.718,67.298s 67.718-30.128, 67.718-67.298
	S 261.394,154.96, 224,154.96S 156.282,185.088, 156.282,222.244z M 108.878,213.844c0-28.154, 34.356-87.5, 34.356-87.5L 224-8.252l 76.132,134.582
	c0,0, 38.99,59.78, 38.99,87.5c0,63.182-51.548,114.394-115.122,114.394S 108.878,277.026, 108.878,213.844z"  />
<glyph unicode="&#xe078;" d="M 392-50L 56-50 c-23.198,0-42,18.816-42,42L 14,188 c0,23.198, 18.802,42, 42,42l 28,0 l 118.902,91.252
	C 202.37,323.422, 202.006,325.662, 202.006,328c0,15.456, 12.544,28, 28,28s 27.986-12.544, 27.986-28c0-5.026-1.428-9.688-3.766-13.776L 364,230l 28,0 
	c 23.184,0, 42-18.802, 42-42l0-196 C 434-31.184, 415.184-50, 392-50z M 238.994,39.838l 56.434,0 l0,10.612 l-44.52,0 l0,79.632 l-11.928,0 L 238.98,39.838 z M 158.242,39.838
	l 9.884,27.342l 37.912,0 l 10.388-27.342l 13.608,0 l-36.792,90.23l-12.936,0 l-34.692-90.23L 158.242,39.838 z M 74.788,119.484
	c-2.576-3.976-3.864-8.246-3.864-12.796c0-4.158, 1.050-7.896, 3.164-11.256s 5.32-6.146, 9.618-8.428c 3.304-1.764, 9.086-3.64, 17.346-5.628
	s 13.594-3.458, 16.016-4.396c 3.766-1.456, 6.468-3.206, 8.134-5.32s 2.506-4.564, 2.506-7.392c0-2.772-0.854-5.362-2.548-7.728
	s-4.284-4.228-7.77-5.586c-3.472-1.372-7.476-2.044-12.012-2.044c-5.11,0-9.702,0.882-13.79,2.688
	c-4.102,1.778-7.112,4.13-9.044,7.042s-3.192,6.636-3.724,11.158l-11.27-0.98c 0.168-6.034, 1.82-11.424, 4.956-16.198
	c 3.136-4.788, 7.448-8.372, 12.95-10.752c 5.516-2.38, 12.334-3.57, 20.482-3.57c 6.412,0, 12.194,1.176, 17.332,3.542
	c 5.138,2.352, 9.072,5.628, 11.816,9.884c 2.744,4.242, 4.116,8.75, 4.116,13.552c0,4.83-1.26,9.086-3.766,12.796
	c-2.506,3.724-6.384,6.776-11.648,9.184c-3.626,1.638-10.262,3.556-19.922,5.74c-9.674,2.198-15.652,4.354-17.934,6.454
	c-2.338,2.072-3.5,4.746-3.5,7.98c0,3.752, 1.652,6.93, 4.942,9.576c 3.29,2.646, 8.526,3.976, 15.722,3.976
	c 6.916,0, 12.138-1.456, 15.666-4.34c 3.542-2.898, 5.6-7.182, 6.216-12.838l 11.48,0.868c-0.21,5.292-1.68,10.024-4.41,14.196
	c-2.744,4.172-6.664,7.336-11.76,9.492s-10.976,3.22-17.654,3.22c-6.062,0-11.564-1.022-16.52-3.080
	C 81.13,126.456, 77.364,123.46, 74.788,119.484z M 247.492,306.3C 242.676,302.422, 236.656,300, 230.006,300c-9.268,0-17.416,4.55-22.512,11.494L 98,230l 252,0 
	L 247.492,306.3z M 377.104,50.45l-55.342,0 L 321.762,81.18 l 49.868,0 l0,10.612 l-49.868,0 l0,27.678 l 53.27,0 l0,10.612 l-65.184,0 l0-90.23 l 67.27,0 L 377.118,50.45 z M 186.396,120.66
	c 1.456-4.942, 3.584-11.2, 6.398-18.802l 9.506-24.948l-30.786,0 l 10.010,26.418C 183.582,109.026, 185.206,114.808, 186.396,120.66z"  />
<glyph unicode="&#xe07b;" d="M 112,20c0-23.184, 18.802-42, 42-42l 140,0 c 23.184,0, 42,18.816, 42,42l 28,224L 84,244 L 112,20z M 266,202l 28,0 l0-182 l-28,0 
			L 266,202 z M 210,202l 28,0 l0-182 l-28,0 L 210,202 z M 154,202l 28,0 l0-182 l-28,0 L 154,202 z M 357,300L 266,300 c0,0-6.272,28-14,28l-56,0 c-7.742,0-14-28-14-28L 91,300 C 79.394,300, 70,290.606, 70,279S 70,258, 70,258
			l 308,0 c0,0,0,9.394,0,21S 368.592,300, 357,300z"  />
<glyph unicode="&#xe08b;" d="M 321.384-49.608l-69.776,0 c-46.256,0-83.734,37.492-83.734,83.734l0,125.608 l 84.616,0 l0-27.916 
	c0-15.414, 11.62-27.902, 27.048-27.902l 13.944,0 c 15.428,0, 27.916,12.502, 27.916,27.902l0,27.916 L 406,159.734 l0-125.608 C 406-12.116, 367.626-49.608, 321.384-49.608z
	 M 321.384,187.65c0,15.414-12.502,27.916-27.916,27.916l0,0L 293.468,298.432 c0,0-18.312,0.868, 27.048,0.868c 45.36,0, 85.484-29.652, 85.484-83.734
	c0-27.762,0-37.772,0-40.992l-84.616,0 L 321.384,187.65 z M 280.532,308.75c0,26.978-12.698,42-38.122,42c-26.894,0-47.474-19.376-61.726-58.114l-2.926-7.938
	c-16.674-45.29-41.118-67.942-73.29-67.942c-12.992,0-25.116,4.956-36.386,14.84c-11.27,9.898-16.898,20.524-16.898,31.906
	c0,5.628, 2.632,8.456, 7.924,8.456c 3.57,0, 7.252-4.494, 11.046-13.468c 6.888-16.576, 18.396-24.864, 34.496-24.864
	c 12.194,0, 22.162,3.934, 29.932,11.83c 7.77,7.882, 16.604,23.044, 26.488,45.486l 6.384,14.154c 18.746,41.888, 44.002,62.832, 75.726,62.832
	c 36.358,0, 54.53-20.748, 54.53-59.178l-0.252,0 L 280.532,308.75 z M 307.426,180.678l0-41.86 c0-11.564-9.366-20.93-20.93-20.93s-20.93,9.366-20.93,20.93
	l0,41.86 c0,11.564, 9.366,20.944, 20.93,20.944S 307.426,192.242, 307.426,180.678z M 252.476,299.3c 45.346,0, 27.902-0.868, 27.902-0.868l0-82.866 
	c-15.414,0-27.902-12.502-27.902-27.916l0-13.090 L 167.86,174.56 c0,3.22,0,13.23,0,40.992C 167.86,269.648, 207.116,299.3, 252.476,299.3z"  />
<glyph unicode="&#xe09b;" d="M 408.184-35.454l-9.926-9.926c-10.99-10.976-28.77-10.976-39.732,0l-79.464,79.436
	c-9.184,9.212-10.206,23.016-3.934,33.768l-43.456,43.428c-23.366-17.332-52.192-27.706-83.51-27.706c-77.56,0-140.434,62.874-140.434,140.434
	c0,77.574, 62.874,140.448, 140.434,140.448c 77.574,0, 140.434-62.874, 140.434-140.448c0-36.106-13.72-68.922-36.12-93.8l 42.49-42.49
	c 10.752,6.258, 24.556,5.25, 33.74-3.962l 79.464-79.436C 419.146-6.698, 419.146-24.492, 408.184-35.454z M 253.232,224.554
	c0,58.17-47.166,105.322-105.336,105.322S 42.56,282.738, 42.56,224.554s 47.152-105.322, 105.322-105.322S 253.232,166.384, 253.232,224.554z"  />
<glyph unicode="&#xe09c;" d="M 408.184-35.454l-9.926-9.926c-10.99-10.976-28.77-10.976-39.732,0l-79.464,79.436
	c-9.184,9.212-10.206,23.016-3.934,33.768l-43.456,43.428c-23.366-17.332-52.192-27.706-83.51-27.706c-77.56,0-140.434,62.874-140.434,140.434
	c0,77.574, 62.874,140.448, 140.434,140.448c 77.574,0, 140.434-62.874, 140.434-140.448c0-36.106-13.72-68.922-36.12-93.8l 42.49-42.49
	c 10.752,6.258, 24.556,5.25, 33.74-3.962l 79.464-79.436C 419.146-6.698, 419.146-24.492, 408.184-35.454z M 253.232,224.554
	c0,58.17-47.166,105.322-105.336,105.322S 42.56,282.738, 42.56,224.554s 47.152-105.322, 105.322-105.322S 253.232,166.384, 253.232,224.554z M 154.028,188.574
	L 139.986,188.574 l0,27.202 L 111.902,215.776 l0,14.042 l 28.084,0 L 139.986,257.916 l 14.042,0 l0-28.098 l 28.098,0 l0-14.042 l-28.098,0 L 154.028,188.574 z"  />
<glyph unicode="&#xe09d;" d="M 111.902,229.818L 182.126,229.818L 182.126,215.776L 111.902,215.776zM 408.184,4.278l-79.464,79.436c-9.184,9.212-23.002,10.22-33.74,3.962l-42.49,42.49c 22.4,24.878, 36.12,57.694, 36.12,93.8
		c0,77.574-62.86,140.448-140.434,140.448c-77.56,0-140.434-62.874-140.434-140.448c0-77.56, 62.874-140.434, 140.434-140.434
		c 31.318,0, 60.144,10.374, 83.51,27.706l 43.456-43.428c-6.258-10.766-5.25-24.556, 3.934-33.768l 79.464-79.436c 10.962-10.976, 28.742-10.976, 39.732,0
		l 9.926,9.926C 419.146-24.492, 419.146-6.698, 408.184,4.278z M 147.882,119.232c-58.17,0-105.322,47.152-105.322,105.322
		s 47.152,105.322, 105.322,105.322s 105.336-47.152, 105.336-105.322S 206.066,119.232, 147.882,119.232z"  />
<glyph unicode="&#xe0b3;" d="M 393.050,130.306l0-110.544 c0-7.728-4.368-13.986-13.972-13.986
	c-2.324,0-8.078,4.956-15.148,12.418L 363.93,314.91 c 7.070,7.462, 12.824,12.418, 15.148,12.418c 10.472,0, 13.972-6.258, 13.972-13.972l0-113.344 
	c 18.942-0.532, 36.582-15.89, 36.582-34.846C 429.632,146.196, 411.992,130.838, 393.050,130.306z M 168.21,103.356c 0.868,0,0,126.406,0,126.406
	c 95.998,0, 152.908,42.14, 182.896,71.036L 351.106,32.32 C 321.118,61.202, 264.208,103.356, 168.21,103.356z M 112.294-7.328l-27.958,110.978L 56.364,103.65 
	c0,0-8.316,18.872-12.096,41.944c-7.126,0-13.356,0-15.876,0c-7.714,0-13.972,6.258-13.972,13.986l0,13.972 c0,7.728, 6.258,13.986, 13.972,13.986
	c 2.52,0, 8.75,0, 15.876,0c 3.794,23.072, 12.096,41.93, 12.096,41.93l 97.86,0 l0-125.818 L 126.266,103.65 l 3.528-13.972l 13.958,0 l 6.986-27.972L 136.822,61.706 l 17.402-69.034
	L 112.294-7.328 z"  />
<glyph unicode="&#xe0c2;" d="M 112,216l 56,0 L 168,272 L 112,272 L 112,216 z M 196,216l 56,0 L 252,272 l-56,0 L 196,216 z M 280,272l0-56 l 56,0 L 336,272 L 280,272 z M 112,132l 56,0 l0,56 L 112,188 L 112,132 z M 196,132l 56,0 
			l0,56 l-56,0 L 196,132 z M 280,132l 56,0 l0,56 l-56,0 L 280,132 z M 112,48l 56,0 l0,56 L 112,104 L 112,48 z M 196,48l 56,0 l0,56 l-56,0 L 196,48 z M 280,48l 56,0 l0,56 l-56,0 L 280,48 z"  />
<glyph unicode="&#xe0c5;" d="M 112,216l 56,0 L 168,272 L 112,272 L 112,216 z M 112,132l 56,0 l0,56 L 112,188 L 112,132 z M 112,48l 56,0 l0,56 L 112,104 L 112,48 z M 196,272l0-56 l 140,0 L 336,272 L 196,272 z M 196,132l 140,0 
			l0,56 L 196,188 L 196,132 z M 196,48l 140,0 l0,56 L 196,104 L 196,48 z"  />
<glyph unicode="&#xe0c3;" d="M 112,174l 98,0 L 210,272 L 112,272 L 112,174 z M 238,272l0-98 l 98,0 L 336,272 L 238,272 z M 238,48l 98,0 l0,98 l-98,0 L 238,48 z M 112,48l 98,0 l0,98 L 112,146 L 112,48 z"  />
<glyph unicode="&#xe0d6;" d="M 388.962,272.896c 13.426-32.382, 7.028-71.036-19.306-97.37
	c-28.994-28.994-72.814-33.53-106.876-14.308l-24.626-26.894l 17.57-17.64l 10.5,10.5c 5.362,5.376, 14.070,5.376, 19.432,0l 85.148-86.016
	c 5.376-5.362, 5.376-14.070,0-19.432l-38.864-38.864c-5.362-5.376-14.070-5.376-19.432,0l-85.148,86.016c-5.376,5.362-5.376,14.070,0,19.432
	l 9.59,9.59l-16.744,16.786l-117.754-128.646c-10.738-10.738-28.14-10.738-38.864,0l-9.716,9.716c-10.738,10.738-10.738,28.14,0,38.864l 134.148,112.35
	l-89.096,89.334l-28.14,0.014L 38.22,288.688l 26.208,26.25l 53.55-32.774l 0.35-27.552l 90.132-90.482l 26.222,21.952
	c-25.634,34.944-22.96,84.168, 8.624,115.752c 26.208,26.208, 64.652,32.718, 96.95,19.544L 282.52,264.44l 48.594-48.594L 388.962,272.896z M 86.1,20.924
	c-5.362,5.362-14.056,5.362-19.432,0c-5.376-5.376-5.376-14.070,0-19.446c 5.376-5.362, 14.070-5.362, 19.432,0
	C 91.476,6.868, 91.476,15.562, 86.1,20.924z"  />
<glyph unicode="&#xe0da;" d="M 385.77,266.12c-18.97-23.058-70.98-86.73-112.294-137.34l-52.458,53.256
	c 47.446,42.224, 106.176,94.416, 127.4,113.106c 37.758,33.278, 70.868,53.074, 78.064,44.982C 430.99,335.644, 419.020,306.58, 385.77,266.12z M 264.306,117.58
	c-16.002-19.586-29.778-36.456-38.206-46.802l-62.104,60.522c 10.066,8.96, 26.824,23.87, 46.256,41.146L 264.306,117.58z M 216.846,59.438l0,0.168 
	c-36.050-138.32-196.252-58.8-196.252-58.8s 67.214-8.47, 67.214,54.222c0,60.774, 61.768,66.262, 65.562,66.542l 63.602-61.978
	C 216.972,59.578, 216.846,59.438, 216.846,59.438z"  />
<glyph unicode="&#xe0db;" d="M 92.75,131.384L 47.068-7.72l 61.054,61.278c-4.2,10.598-3.164,28.7, 5.418,37.268
			c 11.494,11.508, 30.422,11.242, 41.916-0.266c 11.508-11.508, 12.124-30.772, 0.63-42.28c-8.75-8.75-27.972-9.254-38.696-4.718l-60.522-60.69
			l 135.814,47.712l 49.462,89.096l-60.256,59.444L 92.75,131.384z M 321.734,337.114c0,0-84.154-84.14-97.132-97.132
			c-13.006-12.992-19.796-61.866-19.796-61.866l 37.73-37.744c0,0, 47.642,6.804, 61.25,20.426c 13.622,13.608, 97.132,97.132, 97.132,97.132
			L 321.734,337.114z"  />
<glyph unicode="&#xe0dc;" d="M 350.588,122.592L 350.588,297.41 c0,17.276-14,31.304-31.304,31.304L 45.29,328.714 
			C 28,328.728, 13.986,314.7, 13.986,297.41l0-174.818 c0-17.29, 14.014-31.304, 31.304-31.304l 52.206,0 l0-71.918l 79.856,71.918l 141.918,0 
			C 336.588,91.288, 350.588,105.302, 350.588,122.592z M 402.71,259.988l-39.172,0 c0,0,0-139.608,0-152.726s-17.024-29.988-30.142-29.988
			s-153.23-0.77-153.23-0.77c0-17.29, 14.014-27.804, 31.304-27.804l 60.326,0 l 78.708-71.428l-0.098,71.428l 52.304,0 
			c 17.304,0, 31.304,10.514, 31.304,27.804L 434.014,229.552 C 434.014,246.828, 420.014,259.988, 402.71,259.988z"  />
<glyph unicode="&#xe0dd;" d="M 351.746,199.679c0,72.289-78.755,130.889-175.873,130.889C 78.741,330.569,0,271.968,0,199.679
			c0-43.444, 28.44-81.932, 72.219-105.739c-0.126-0.378-34.877-63.612-34.877-63.612s 106.117,40.477, 106.411,40.644
			c 10.413-1.442, 21.148-2.169, 32.12-2.169C 272.99,68.803, 351.746,127.404, 351.746,199.679z M 481.25,158.783
			c0,72.275-74.136,130.358-154.389,130.875c 115.047-114.599-20.448-236.699-130.875-236.699c0,0, 12.274-25.053, 109.392-25.053
			c 10.958,0, 21.708,0.756, 32.12,2.183c 0.294-0.196, 106.425-40.644, 106.425-40.644s-34.766,63.22-34.877,63.598
			C 452.81,76.851, 481.25,115.353, 481.25,158.783z" horiz-adv-x="481.25"  />
<glyph unicode="&#xe0de;" d="M 360.99,314.672L 87.010,314.672 c-17.29,0-31.304-14.028-31.304-31.304l0-174.832 
			c0-17.276, 14.014-31.304, 31.304-31.304l 52.206,0 l 0.014-71.918l 79.856,71.918l 141.918,0 c 17.304,0, 31.304,14.028, 31.304,31.304L 392.308,283.368 
			C 392.294,300.644, 378.294,314.672, 360.99,314.672z M 140,188.434c-7.742,0-14,6.272-14,14c0,7.742, 6.258,14, 14,14c 7.728,0, 14-6.258, 14-14
			C 154,194.706, 147.728,188.434, 140,188.434z M 196,189.022c-7.742,0-14,6.272-14,14c0,7.742, 6.258,14, 14,14c 7.728,0, 14-6.258, 14-14
			C 210,195.294, 203.728,189.022, 196,189.022z M 252.28,188.728c-7.728,0-14,6.258-14,14c0,7.728, 6.272,14, 14,14c 7.742,0, 14-6.272, 14-14
			C 266.28,195, 260.008,188.728, 252.28,188.728z M 308,188.434c-7.742,0-14,6.272-14,14c0,7.742, 6.258,14, 14,14c 7.728,0, 14-6.258, 14-14
			C 322,194.706, 315.728,188.434, 308,188.434z"  />
<glyph unicode="&#xe0df;" d="M 224,310.164c-97.146,0-175.91-58.618-175.91-130.928c0-43.456, 28.448-81.956, 72.24-105.77
			c-0.126-0.378-34.888-63.63-34.888-63.63s 106.162,40.488, 106.456,40.656c 10.416-1.442, 21.154-2.17, 32.116-2.17
			c 97.146,0, 175.91,58.618, 175.91,130.914C 399.91,251.546, 321.146,310.164, 224,310.164z M 139.552,165.25c-7.728,0-14,6.272-14,14c0,7.742, 6.272,14, 14,14
			s 14-6.258, 14-14C 153.552,171.522, 147.294,165.25, 139.552,165.25z M 195.258,164.662c-7.728,0-14,6.272-14,14c0,7.742, 6.272,14, 14,14
			c 7.742,0, 14-6.258, 14-14C 209.258,170.934, 203,164.662, 195.258,164.662z M 251.832,164.662c-7.728,0-14,6.272-14,14c0,7.742, 6.272,14, 14,14
			c 7.742,0, 14-6.258, 14-14C 265.832,170.934, 259.574,164.662, 251.832,164.662z M 307.832,164.662c-7.728,0-14,6.272-14,14c0,7.742, 6.272,14, 14,14
			c 7.742,0, 14-6.258, 14-14C 321.832,170.934, 315.574,164.662, 307.832,164.662z"  />
<glyph unicode="&#xe0e0;" d="M 326.55-21.076l-117.32,81.76L 209.23,246.198 l 117.32,80.878c 15.47,0, 37.646-11.704, 37.646-26.138
	l0-295.862 C 364.21-9.372, 342.034-21.076, 326.55-21.076z M 196.182,63.428L 111.804,63.428 c-15.47,0-28,18.508-28,32.956l0,113.26 
	c0,14.42, 12.544,34.93, 28,34.93l 84.378,0 L 196.182,63.428 z"  />
<glyph unicode="&#xe0e1;" d="M 331.056,235.764l-13.847-28.238c 13.245-11.357, 21.637-28.21, 21.637-47.008
			c0-20.728-4.7-39.469-20.322-50.714l 13.385-23.874c 20.434,18.336, 33.302,44.938, 33.302,74.561C 365.196,190.49, 351.979,217.428, 331.056,235.764z
			 M 433.828,334.647l-19.483-23.637c 36.336-39.666, 59.33-92.519, 59.33-150.549c0-57.931-22.951-110.715-59.162-150.367l 19.455-24.126
			c 41.442,46.658, 66.547,106.967, 66.547,174.493C 500.5,227.806, 475.073,288.017, 433.828,334.647z M 382.133,286.353l-17.343-24.938
			c 25.763-25.875, 42.099-61.54, 42.099-100.939c0-40.197-16.993-76.491-43.679-102.505l 18.029-23.93c 32.239,32.924, 51.651,76.701, 51.651,126.423
			C 432.891,209.26, 413.338,253.583, 382.133,286.353z M0,215.848l0-113.149 c0-14.42, 12.532-32.924, 27.973-32.924l 84.296,0 L 112.268,250.744 L 27.973,250.744 
			C 12.532,250.744,0,230.254,0,215.848z M 242.537,333.165L 125.317,252.366l0-185.319 l 117.219-81.68c 15.441,0, 37.595,11.693, 37.595,26.113L 280.132,307.053 
			C 280.132,321.473, 257.977,333.165, 242.537,333.165z" horiz-adv-x="500.5"  />
<glyph unicode="&#xe0e2;" d="M 402.010,160.896l 31.36-31.388c 2.044-2.030, 2.044-5.334,0-7.378l-11.074-11.074
	c-2.030-2.030-5.334-2.030-7.378,0l-31.36,31.388l-31.388-31.388c-2.044-2.030-5.334-2.030-7.378,0l-11.074,11.074
	c-2.030,2.044-2.030,5.362,0,7.378l 31.388,31.388l-31.388,31.388c-2.030,2.044-2.030,5.334,0,7.378l 11.074,11.074
	c 2.044,2.044, 5.348,2.044, 7.378,0l 31.388-31.374l 31.36,31.374c 2.044,2.044, 5.362,2.044, 7.378,0l 11.074-11.074
	c 2.044-2.044, 2.044-5.348,0-7.378L 402.010,160.896z M 255.85-14.076l-117.306,81.76L 138.544,253.198 l 117.306,80.878c 15.47,0, 37.646-11.704, 37.646-26.138
	l0-295.862 C 293.51-2.372, 271.334-14.076, 255.85-14.076z M 13.104,102.502l0,114.142 c0,14.42, 12.544,34.93, 28,34.93l 84.378,0 l0-182.014 L 41.104,69.56 
	C 25.634,69.546, 13.104,88.054, 13.104,102.502z"  />
<glyph unicode="&#xe0e3;" d="M 84-8l 42,0 l0,126 L 84,118 L 84-8 z M 252,132l-70,0 c-7.742,0-14-6.258-14-14l0-42 c0-7.728, 6.258-14, 14-14l 70,0 
			c 7.728,0, 14,6.272, 14,14l0,42 C 266,125.742, 259.728,132, 252,132z M 196.434,76.434l-14,0 l0,41.132 l 14,0 L 196.434,76.434 z M 223.566,76.434l-14,0 l0,41.132 l 14,0 L 223.566,76.434 z
			 M 252.434,76.434l-14,0 l0,41.132 l 14,0 L 252.434,76.434 z M 238,328l-42,0 l0-182 l 42,0 L 238,328 z M 350,328l-42,0 l0-70 l 42,0 L 350,328 z M 126,328L 84,328 l0-112 l 42,0 L 126,328 z M 308-8l 42,0 L 350,160 l-42,0 L 308-8 z M 196-8l 42,0 l0,56 l-42,0 L 196-8 z
			 M 140,202L 70,202 c-7.742,0-14-6.258-14-14l0-42 c0-7.728, 6.258-14, 14-14l 70,0 c 7.728,0, 14,6.272, 14,14l0,42 C 154,195.742, 147.728,202, 140,202z M 84.434,146.434l-14,0 
			l0,41.132 l 14,0 L 84.434,146.434 z M 112.434,146.434l-14,0 l0,41.132 l 14,0 L 112.434,146.434 z M 140.434,146.434l-14,0 l0,41.132 l 14,0 L 140.434,146.434 z M 364,244l-70,0 c-7.742,0-14-6.258-14-14l0-42 
			c0-7.728, 6.258-14, 14-14l 70,0 c 7.728,0, 14,6.272, 14,14l0,42 C 378,237.742, 371.728,244, 364,244z M 308.434,188.434l-14,0 l0,41.132 l 14,0 L 308.434,188.434 z M 335.566,188.434l-14,0 
			l0,41.132 l 14,0 L 335.566,188.434 z M 364.434,188.434l-14,0 l0,41.132 l 14,0 L 364.434,188.434 z"  />
<glyph unicode="&#xe0e4;" d="M 363.86,299.412l-0.056-136.29l-52.248,52.262L 249.2,153.014l-37.31,37.31l 62.356,62.356
	l-47.376,47.362L 363.86,299.412z M 160.916,64.73l 45.332-44.548L 70.14,19.944l 0.056,135.52l 53.41-53.41l 68.95,68.936l 37.31-37.31L 160.916,64.73z
	"  />
<glyph unicode="&#xe0e5;" d="M 383.698,273.652l-37.31,37.31l-68.95-68.95l-53.41,53.41l-0.056-135.52l 136.122,0.238
			l-45.332,44.562L 383.698,273.652z M 120.078,98.638l-62.342-62.342l 37.31-37.324l 62.342,62.37l 52.248-52.248l 0.056,136.276L 72.716,146L 120.078,98.638z
			"  />
<glyph unicode="&#xe0e6;" d="M 403.116,153.658L 336.126,221.446L 336.126,173.902L 238.434,173.902L 238.434,328L 196.434,328L 196.434,173.902L 98.742,173.902L 98.742,221.446L 30.884,153.658L 98.406,85.576L 98.742,132.504L 196.434,132.504L 196.434-22L 238.434-22L 238.434,132.504L 336.126,132.504L 335.58,85.576 z"  />
<glyph unicode="&#xe0e7;" d="M 322.294,173.902l0,47.544 l-67.858-67.788l 67.522-68.082l 0.322,46.942l 97.51,0 l0,41.398 
			L 322.294,173.916 z M 196-22l 42,0 L 238,328 l-42,0 L 196-22 z M 112.56,173.902L 14.196,173.902 l0-41.398 L 112.56,132.504 l-0.546-46.942l 67.536,68.082L 112.56,221.446L 112.56,173.902 z"  />
<glyph unicode="&#xe0e8;" d="M 335.678-21.51l0,27.048 l 55.832,0 l0,55.832 l 28.798,0 l0-82.88 L 335.678-21.51 z M 391.51,300.462l-55.832,0 
	L 335.678,327.51 l 84.63,0 l0-82.88 l-28.798,0 L 391.51,300.462 z M 42.49,244.63L 13.706,244.63 l0,82.88 l 84.63,0 l0-27.048 L 42.49,300.462 L 42.49,244.63 z M 69.538,271.678l 294.924,0 l0-237.342 L 69.538,34.336 L 69.538,271.678 z
	 M 98.322,61.37l 237.342,0 L 335.664,244.63 L 98.322,244.63 L 98.322,61.37 z M 126.252,215.832l 182.378,0 l0-125.678 L 126.252,90.154 L 126.252,215.832 z M 42.49,5.538l 55.832,0 l0-27.048 L 13.706-21.51 l0,82.88 l 28.798,0 
	L 42.504,5.538 z"  />
<glyph unicode="&#xe0e9;" d="M 386.736,90.63l-13.412-71.008L 74.676,19.622 l-13.412,71.008L 27.874,90.63 l0-112.868 l 392.252,0 l0,112.868 L 386.736,90.63 z M 378.28,216.756l-98.308,0 l0,41.020 l-111.916,0 l0-41.020 
	L 70.686,216.756 l 152.796-159.768L 378.28,216.756z M 279.958,328.252l-111.916,0 l0-14.924 l 111.916,0 L 279.958,328.252 z M 279.958,300.378l-111.916,0 l0-28.532 l 111.916,0 L 279.958,300.378 z"  />
<glyph unicode="&#xe0f8;" d="M 149.534,129.102l-30.926-79.38l 78.008,32.298L 149.534,129.102z M 375.97,298.642
			L 366.072,308.54c-10.92,10.934-28.658,10.934-39.592,0l-19.796-19.796l 49.49-49.504l 19.796,19.796C 386.918,269.97, 386.918,287.708, 375.97,298.642z
			 M 151.102,133.148l 7.084,7.084l 49.49-49.49l 138.6,138.6l-49.49,49.49l 9.898,9.912L 151.116,133.176L 151.102,133.148z M 322.056,19.944
			L 83.692,19.86L 83.734,258.224L 250.628,258.28L 276.78,286L 69.51,286 c-7.728,0-14-6.258-14-14l0-266 c0-7.742, 6.272-14, 14-14l 266,0 c 7.742,0, 14,6.258, 14,14L 349.51,202.812 
			l-28.21-27.678L 322.056,19.944z"  />
<glyph unicode="&#xe0f6;" d="M 265.622,134.772l-109.116,63c-13.384,7.742-30.52,3.15-38.248-10.234
			c-7.728-13.398-3.136-30.52, 10.248-38.248l 109.102-63c 13.398-7.742, 30.52-3.15, 38.248,10.248C 283.612,109.922, 279.020,127.044, 265.622,134.772z
			 M 175.63,202.896l 84.868-49l 28.868,80.332l-58.604,33.824L 175.63,202.896z M 113.064-3.464l 81.186,98.616l-36.372,21L 113.064-3.464z
			 M 324.436,278.65l-72.73,42c-10.052,5.796-22.89,2.366-28.686-7.686c-5.81-10.052-2.352-22.89, 7.686-28.686l 72.744-42
			c 10.052-5.796, 22.89-2.366, 28.686,7.686C 337.932,260.016, 334.488,272.854, 324.436,278.65z"  />
<glyph unicode="&#xe0f5;" d="M 287,174l-126,0 c-15.456,0-28-12.544-28-28s 12.544-28, 28-28l 126,0 c 15.456,0, 28,12.544, 28,28
			S 302.456,174, 287,174z M 190.162,272L 175,188l 98,0 l-15.176,84L 190.162,272 z M 224-22l 21,126l-42,0 L 224-22z M 182,286l 84,0 c 11.592,0, 21,9.408, 21,21
			S 277.592,328, 266,328l-84,0 c-11.606,0-21-9.408-21-21S 170.394,286, 182,286z"  />
<glyph unicode="&#xe0f4;" d="M 406.336,293.014l-34.538-34.538l-49.322,49.322l 34.538,34.538
	c 13.622,13.622, 35.714,13.622, 49.322,0S 419.958,306.636, 406.336,293.014z M 386.596,253.562c 2.73,2.716, 7.154,2.716, 9.87,0
	c 2.73-2.73, 2.73-7.154,0-9.87l-128.24-128.254c-2.73-2.716-7.154-2.716-9.87,0s-2.716,7.14,0,9.856l 83.86,83.86l-69.076,69.076
	l 29.596,29.582l 69.062-69.062L 386.596,253.562z M 273.154,258.476l 49.322-49.322L 125.16,11.838L 75.838,61.16L 274.82,260.142L 273.154,258.476z
	 M 31.444-32.556l 34.524,83.846l 49.322-49.322L 31.444-32.556z"  />
<glyph unicode="&#xe0f3;" d="M 78.148,103.244L 286.552,311.648l 89.166-89.166L 167.314,14.078L 78.148,103.244z
	 M 296.142,261.388l-9.772,9.758L 118.636,103.426l 9.772-9.772L 296.142,261.388z M 315.686,241.844l-9.772,9.772L 138.18,83.868l 9.758-9.758
	L 315.686,241.844z M 335.23,222.3l-9.772,9.772L 157.724,64.338l 9.772-9.772L 335.23,222.3z M 326.466,351.016
	c 10.934,10.962, 28.63,11.032, 39.48,0.182l 49.168-49.168c 10.85-10.85, 10.78-28.532-0.168-39.48l-30.38-30.38l-88.48,88.48L 326.466,351.016z
	 M 71.288,91.638l 84.42-84.42L 81.732-19.060l-36.722,36.722L 71.288,91.638z M 67.718-23.638l-42.924-15.638l 15.638,42.924L 67.718-23.638z"  />
<glyph unicode="&#xe0f0;" d="M 322.854,195.826c0,0, 16.408,12.474, 3.934,24.948c-12.502,12.474-24.64-3.626-24.64-3.626
	l-97.566-97.58c0,0-29.442-37.954-51.744-14.98s 14.98,51.744, 14.98,51.744l 136.626,136.64c0,0, 38.416,42.322, 74.508,6.23
	c 36.092-36.106-6.342-74.606-6.342-74.606L 187.628,39.6c0,0-59.192-68.376-114.002-13.566s 14.224,113.33, 14.224,113.33L 228.326,279.84
	c0,0, 15.75,13.132, 3.934,24.948s-24.934-3.934-24.934-3.934L 46.186,139.7c0,0-60.83-66.738, 7.112-134.652
	c 67.942-67.942, 134.666-7.126, 134.666-7.126l 221.508,221.522c0,0, 44.296,48.902-8.526,101.752s-101.752,8.526-101.752,8.526L 136.654,167.168
	c0,0-48.86-39.676-4.55-83.972c 44.31-44.31, 83.314,5.208, 83.314,5.208L 322.854,195.826z"  />
<glyph unicode="&#xe11b;" d="M 224,342C 123.48,342, 42,260.52, 42,160s 81.48-182, 182-182s 182,81.48, 182,182S 324.52,342, 224,342z
			 M 252.546,93.038c-13.734-20.622-27.706-36.512-51.212-36.512c-16.044,2.618-22.638,14.112-19.166,25.83l 30.24,100.156
			c 0.742,2.45-0.49,5.068-2.73,5.866c-2.226,0.784-6.594-2.114-10.374-6.258l-18.284-21.994c-0.49,3.696-0.056,9.8-0.056,12.264
			c 13.734,20.622, 36.302,36.89, 51.604,36.89c 14.546-1.484, 21.434-13.118, 18.9-25.9l-30.45-100.646c-0.406-2.268, 0.798-4.578, 2.856-5.306
			c 2.24-0.784, 6.944,2.114, 10.738,6.258l 18.27,21.98C 253.372,101.97, 252.546,95.502, 252.546,93.038z M 248.472,223.854
			c-11.564,0-20.944,8.428-20.944,20.832c0,12.404, 9.38,20.818, 20.944,20.818s 20.944-8.428, 20.944-20.818
			C 269.416,232.268, 260.036,223.854, 248.472,223.854z"  />
<glyph unicode="&#xe11a;" d="M 227.458,317.738c0-23.576, 17.794-39.55, 39.76-39.55c 21.966,0, 39.788,15.988, 39.788,39.55
	c0,23.59-17.808,39.564-39.788,39.564C 245.266,357.302, 227.458,341.328, 227.458,317.738z M 141.344,182.75c0-4.676-0.854-16.282, 0.112-23.268
	l 34.706,41.762c 7.182,7.868, 15.484,13.37, 19.726,11.886c 4.256-1.484, 6.58-6.482, 5.194-11.13L 143.64,11.74
	c-6.622-22.232, 5.894-44.072, 36.386-49.056c 44.646,0, 71.176,30.212, 97.272,69.37c0,4.676, 1.554,16.982, 0.616,23.982l-34.706-41.748
	c-7.196-7.868-16.114-13.37-20.37-11.9c-3.92,1.372-6.216,5.74-5.446,10.094l 57.848,191.142c 4.816,24.276-8.26,46.368-35.896,49.196
	C 210.28,252.806, 167.44,221.894, 141.344,182.75z"  />
<glyph unicode="&#xe119;" d="M 224.588,267.17c0,0-28,59.668-91,59.668c-68.838,0-105-58.338-105-116.662
	c0-96.838, 196-217, 196-217s 194.824,119, 194.824,217c0,59.5-37.324,116.662-103.824,116.662S 224.588,267.17, 224.588,267.17z"  />
<glyph unicode="&#xe112;" d="M 281.946,118.924l 137.018,111.986L 224,368.572l-194.46-137.662l 137.536-112.448L 281.946,118.924z
			 M 173.040,104.896L 43.134-48.572l 362.264,0 l-131.082,152.6L 173.040,104.896z M 289.87,106.758l 130.074-155.176L 419.944,216.91 L 289.87,106.758z M 28.056,216.91
			l0-265.328 l 130.074,155.176L 28.056,216.91z"  />
<glyph unicode="&#xe111;" d="M 224.21,119.946l-57.008,46.802L 43.134,20.266l 362.264,0 l-124.082,147.938L 224.21,119.946z
			 M 418.964,299.734L 29.554,299.734 l 194.712-163.772L 418.964,299.734z M 289.87,175.582l 130.074-155.176L 419.944,285.734 L 289.87,175.582z M 28.056,285.734l0-265.328 
			l 130.074,155.176L 28.056,285.734z"  />
</font>
</defs>
</svg>
